<svg width="236" height="80" viewBox="0 0 236 80" fill="none" xmlns="http://www.w3.org/2000/svg">
<rect width="236" height="80" rx="16" fill="#C7DBF2"/>
<g clip-path="url(#clip0_951_4062)">
<path d="M35.0197 61.5547H34.8639C28.0739 61.5547 22.5488 56.0323 22.5488 49.2456V29.7546C22.5488 22.9679 28.0739 17.4456 34.8639 17.4456H35.0197C41.8098 17.4456 47.3349 22.9679 47.3349 29.7546V49.2456C47.3349 56.0323 41.8098 61.5547 35.0197 61.5547ZM34.8639 17.9104C28.3297 17.9104 23.0139 23.2236 23.0139 29.7546V49.2456C23.0139 55.7766 28.3297 61.0898 34.8639 61.0898H35.0197C41.554 61.0898 46.8698 55.7766 46.8698 49.2456V29.7546C46.8698 23.2236 41.554 17.9104 35.0197 17.9104H34.8639Z" fill="#071830"/>
<path d="M34.9432 59.4374C29.2019 59.4374 24.5303 54.768 24.5303 49.0295V29.9709C24.5303 24.2324 29.2019 19.563 34.9432 19.563C40.6846 19.563 45.3562 24.2324 45.3562 29.9709V49.0295C45.3562 54.768 40.6846 59.4374 34.9432 59.4374ZM34.9432 20.0302C29.4577 20.0278 24.9953 24.488 24.9953 29.9709V49.0295C24.9953 54.5123 29.4577 58.9725 34.9432 58.9725C40.4288 58.9725 44.8911 54.5123 44.8911 49.0295V29.9709C44.8911 24.488 40.4288 20.0278 34.9432 20.0278V20.0302Z" fill="#071830"/>
<path d="M28.1131 56.5808L27.7852 56.2507L34.6427 49.3966V29.822L27.6689 22.8516L27.9968 22.5239L35.1078 29.6314V49.5895L28.1131 56.5808Z" fill="#071830"/>
<path d="M41.7033 56.5808L34.7109 49.5895V29.6314L41.8196 22.5239L42.1498 22.8516L35.176 29.822V49.3966L42.0335 56.2507L41.7033 56.5808Z" fill="#071830"/>
<path d="M24.9285 29.1352L24.5996 29.4639L44.9772 49.8314L45.306 49.5027L24.9285 29.1352Z" fill="#071830"/>
<path d="M44.899 29.1376L24.5215 49.5051L24.8503 49.8338L45.2279 29.4663L44.899 29.1376Z" fill="#071830"/>
<path d="M57.5242 29.5059H61.2959L66.1885 37.8498L72.4925 29.5059H74.5923L66.9465 38.7958L74.9714 49.7522H71.0461L65.1886 40.8643L58.9868 49.7522H57.1963L64.6374 39.6813L57.5242 29.5059Z" fill="#071830"/>
<path d="M83.5499 29.5059H80.7246V49.7522H83.5499V29.5059Z" fill="#071830"/>
<path d="M92.7839 49.7522H91.1631V29.5059H93.7814L105.115 44.2647V29.5059H106.769V49.7522H105.494L92.7304 33.4152L92.7839 49.7522Z" fill="#071830"/>
<path d="M155.827 49.7522H154.206V29.5059H156.824L168.158 44.2647V29.5059H169.814V49.7522H168.537L155.776 33.4152L155.827 49.7522Z" fill="#071830"/>
<path d="M111.885 29.5059H115.296L121.912 45.6708L127.853 29.5059H129.455L121.651 49.7522H120.928L111.885 29.5059Z" fill="#071830"/>
<path d="M147.026 49.7522H134.676V29.5059H147.026L146.716 31.5884C146.716 31.5884 141.722 29.8661 137.587 31.1072V38.4076H144.477V39.6302H137.603V48.2391C137.603 48.2391 144.235 48.0508 147.026 47.4303V49.7545V49.7522Z" fill="#071830"/>
<path d="M182.457 29.5059H174.879V31.6744C177.493 30.3821 181.204 30.9515 181.204 30.9515V49.7522H183.713V30.9515C183.713 30.9515 187.424 30.3844 190.038 31.6744V29.5059H182.46H182.457Z" fill="#071830"/>
<path d="M205.774 29.2804C199.812 28.6273 194.638 32.7017 194.028 38.3751C193.419 44.0485 196.319 49.1502 202.914 49.7545C208.355 50.2519 213.096 46.1612 213.708 40.4878C214.32 34.8144 211.208 29.8754 205.776 29.2827L205.774 29.2804ZM210.497 40.3112C209.964 45.2641 207.099 48.9131 203.404 48.5924C198.926 48.2042 196.607 43.8324 197.137 38.8795C197.668 33.9265 201.091 30.231 204.781 30.6261C208.471 31.0213 211.029 35.3583 210.497 40.3135V40.3112Z" fill="#071830"/>
</g>
<defs>
<clipPath id="clip0_951_4062">
<rect width="191.231" height="44.1091" fill="white" transform="translate(22.5488 17.4456)"/>
</clipPath>
</defs>
</svg>
