<svg width="236" height="80" viewBox="0 0 236 80" fill="none" xmlns="http://www.w3.org/2000/svg">
<rect width="236" height="80" rx="16" fill="#C7DBF2"/>
<g clip-path="url(#clip0_951_3988)">
<path d="M117.999 8.1001C100.41 8.1001 86.0996 22.4109 86.0996 39.9999C86.0996 57.5889 100.41 71.8998 117.999 71.8998C135.587 71.8998 149.898 57.5889 149.898 39.9999C149.898 22.4109 135.589 8.1001 117.999 8.1001ZM137.217 60.2143L120.586 38.3487L115.8 41.9898L132.443 63.8692C128.227 66.4303 123.282 67.9062 117.999 67.9062C102.612 67.9062 90.0931 55.3873 90.0931 39.9999C90.0931 24.6126 102.612 12.0937 117.999 12.0937C133.386 12.0937 145.904 24.6126 145.904 39.9999C145.904 47.9454 142.565 55.1268 137.217 60.2143Z" fill="#071830"/>
</g>
<defs>
<clipPath id="clip0_951_3988">
<rect width="63.7997" height="63.7997" fill="white" transform="translate(86.0996 8.1001)"/>
</clipPath>
</defs>
</svg>
