<svg width="236" height="80" viewBox="0 0 236 80" fill="none" xmlns="http://www.w3.org/2000/svg">
<rect width="236" height="80" rx="16" fill="#C7DBF2"/>
<g clip-path="url(#clip0_951_4096)">
<path d="M124.099 33.7471C124.768 33.7471 125.311 33.2047 125.311 32.5356C125.311 31.8666 124.768 31.3242 124.099 31.3242C123.43 31.3242 122.888 31.8666 122.888 32.5356C122.888 33.2047 123.43 33.7471 124.099 33.7471Z" fill="#071830"/>
<path d="M121.812 27.0248C122.853 27.0248 123.697 26.1805 123.697 25.139C123.697 24.0975 122.853 23.2532 121.812 23.2532C120.77 23.2532 119.926 24.0975 119.926 25.139C119.926 26.1805 120.77 27.0248 121.812 27.0248Z" fill="#071830"/>
<path d="M116.599 20.5556C117.64 20.5556 118.485 19.7113 118.485 18.6697C118.485 17.6282 117.64 16.7839 116.599 16.7839C115.557 16.7839 114.713 17.6282 114.713 18.6697C114.713 19.7113 115.557 20.5556 116.599 20.5556Z" fill="#071830"/>
<path d="M109.489 20.5556C110.531 20.5556 111.375 19.7113 111.375 18.6697C111.375 17.6282 110.531 16.7839 109.489 16.7839C108.448 16.7839 107.604 17.6282 107.604 18.6697C107.604 19.7113 108.448 20.5556 109.489 20.5556Z" fill="#071830"/>
<path d="M108.667 13.4677C109.709 13.4677 110.553 12.6234 110.553 11.5819C110.553 10.5404 109.709 9.69604 108.667 9.69604C107.626 9.69604 106.781 10.5404 106.781 11.5819C106.781 12.6234 107.626 13.4677 108.667 13.4677Z" fill="#071830"/>
<path d="M98.9278 9.07875C99.9693 9.07875 100.814 8.23444 100.814 7.19294C100.814 6.15144 99.9693 5.30713 98.9278 5.30713C97.8863 5.30713 97.042 6.15144 97.042 7.19294C97.042 8.23444 97.8863 9.07875 98.9278 9.07875Z" fill="#071830"/>
<path d="M88.3985 8.00307C89.44 8.00307 90.2843 7.15876 90.2843 6.11726C90.2843 5.07575 89.44 4.23145 88.3985 4.23145C87.357 4.23145 86.5127 5.07575 86.5127 6.11726C86.5127 7.15876 87.357 8.00307 88.3985 8.00307Z" fill="#071830"/>
<path d="M89.2667 19.7548C90.3082 19.7548 91.1525 18.9105 91.1525 17.869C91.1525 16.8275 90.3082 15.9832 89.2667 15.9832C88.2252 15.9832 87.3809 16.8275 87.3809 17.869C87.3809 18.9105 88.2252 19.7548 89.2667 19.7548Z" fill="#071830"/>
<path d="M82.9122 23.1837C83.9537 23.1837 84.798 22.3394 84.798 21.2979C84.798 20.2564 83.9537 19.4121 82.9122 19.4121C81.8707 19.4121 81.0264 20.2564 81.0264 21.2979C81.0264 22.3394 81.8707 23.1837 82.9122 23.1837Z" fill="#071830"/>
<path d="M61.6837 23.4013C62.7252 23.4013 63.5695 22.557 63.5695 21.5154C63.5695 20.4739 62.7252 19.6296 61.6837 19.6296C60.6422 19.6296 59.7979 20.4739 59.7979 21.5154C59.7979 22.557 60.6422 23.4013 61.6837 23.4013Z" fill="#071830"/>
<path d="M57.3624 33.1298C58.4039 33.1298 59.2482 32.2855 59.2482 31.244C59.2482 30.2025 58.4039 29.3582 57.3624 29.3582C56.3209 29.3582 55.4766 30.2025 55.4766 31.244C55.4766 32.2855 56.3209 33.1298 57.3624 33.1298Z" fill="#071830"/>
<path d="M68.9092 35.9877C69.9508 35.9877 70.7951 35.1434 70.7951 34.1019C70.7951 33.0604 69.9508 32.2161 68.9092 32.2161C67.8677 32.2161 67.0234 33.0604 67.0234 34.1019C67.0234 35.1434 67.8677 35.9877 68.9092 35.9877Z" fill="#071830"/>
<path d="M69.4571 49.6823C70.4986 49.6823 71.3429 48.838 71.3429 47.7965C71.3429 46.755 70.4986 45.9106 69.4571 45.9106C68.4156 45.9106 67.5713 46.755 67.5713 47.7965C67.5713 48.838 68.4156 49.6823 69.4571 49.6823Z" fill="#071830"/>
<path d="M58.4024 54.0712C59.4439 54.0712 60.2882 53.2269 60.2882 52.1854C60.2882 51.1439 59.4439 50.2996 58.4024 50.2996C57.3609 50.2996 56.5166 51.1439 56.5166 52.1854C56.5166 53.2269 57.3609 54.0712 58.4024 54.0712Z" fill="#071830"/>
<path d="M63.5928 63.3536C64.6343 63.3536 65.4787 62.5093 65.4787 61.4678C65.4787 60.4263 64.6343 59.582 63.5928 59.582C62.5513 59.582 61.707 60.4263 61.707 61.4678C61.707 62.5093 62.5513 63.3536 63.5928 63.3536Z" fill="#071830"/>
<path d="M78.0421 60.3583C79.0836 60.3583 79.9279 59.514 79.9279 58.4725C79.9279 57.431 79.0836 56.5867 78.0421 56.5867C77.0006 56.5867 76.1562 57.431 76.1562 58.4725C76.1562 59.514 77.0006 60.3583 78.0421 60.3583Z" fill="#071830"/>
<path d="M71.7315 70.5094C72.773 70.5094 73.6173 69.6651 73.6173 68.6236C73.6173 67.5821 72.773 66.7378 71.7315 66.7378C70.69 66.7378 69.8457 67.5821 69.8457 68.6236C69.8457 69.6651 70.69 70.5094 71.7315 70.5094Z" fill="#071830"/>
<path d="M81.4493 74.7611C82.4908 74.7611 83.3351 73.9168 83.3351 72.8753C83.3351 71.8338 82.4908 70.9895 81.4493 70.9895C80.4078 70.9895 79.5635 71.8338 79.5635 72.8753C79.5635 73.9168 80.4078 74.7611 81.4493 74.7611Z" fill="#071830"/>
<path d="M92.1485 75.7672C93.19 75.7672 94.0343 74.9229 94.0343 73.8814C94.0343 72.8399 93.19 71.9956 92.1485 71.9956C91.107 71.9956 90.2627 72.8399 90.2627 73.8814C90.2627 74.9229 91.107 75.7672 92.1485 75.7672Z" fill="#071830"/>
<path d="M102.38 73.6068C103.421 73.6068 104.266 72.7625 104.266 71.721C104.266 70.6795 103.421 69.8352 102.38 69.8352C101.338 69.8352 100.494 70.6795 100.494 71.721C100.494 72.7625 101.338 73.6068 102.38 73.6068Z" fill="#071830"/>
<path d="M111.479 68.349C112.52 68.349 113.364 67.5047 113.364 66.4632C113.364 65.4217 112.52 64.5774 111.479 64.5774C110.437 64.5774 109.593 65.4217 109.593 66.4632C109.593 67.5047 110.437 68.349 111.479 68.349Z" fill="#071830"/>
<path d="M118.657 60.3583C119.699 60.3583 120.543 59.514 120.543 58.4725C120.543 57.431 119.699 56.5867 118.657 56.5867C117.616 56.5867 116.771 57.431 116.771 58.4725C116.771 59.514 117.616 60.3583 118.657 60.3583Z" fill="#071830"/>
<path d="M103.944 59.3983C104.986 59.3983 105.83 58.554 105.83 57.5125C105.83 56.471 104.986 55.6267 103.944 55.6267C102.903 55.6267 102.059 56.471 102.059 57.5125C102.059 58.554 102.903 59.3983 103.944 59.3983Z" fill="#071830"/>
<path d="M91.1251 63.9708C92.1666 63.9708 93.0109 63.1265 93.0109 62.085C93.0109 61.0435 92.1666 60.1992 91.1251 60.1992C90.0836 60.1992 89.2393 61.0435 89.2393 62.085C89.2393 63.1265 90.0836 63.9708 91.1251 63.9708Z" fill="#071830"/>
<path d="M56.128 43.7377C57.1695 43.7377 58.0138 42.8934 58.0138 41.8519C58.0138 40.8104 57.1695 39.9661 56.128 39.9661C55.0865 39.9661 54.2422 40.8104 54.2422 41.8519C54.2422 42.8934 55.0865 43.7377 56.128 43.7377Z" fill="#071830"/>
<path d="M68.8057 15.537C69.8472 15.537 70.6915 14.6927 70.6915 13.6512C70.6915 12.6097 69.8472 11.7654 68.8057 11.7654C67.7642 11.7654 66.9199 12.6097 66.9199 13.6512C66.9199 14.6927 67.7642 15.537 68.8057 15.537Z" fill="#071830"/>
<path d="M76.5108 24.6019C77.5523 24.6019 78.3966 23.7576 78.3966 22.7161C78.3966 21.6746 77.5523 20.8303 76.5108 20.8303C75.4693 20.8303 74.625 21.6746 74.625 22.7161C74.625 23.7576 75.4693 24.6019 76.5108 24.6019Z" fill="#071830"/>
<path d="M77.9971 10.2438C79.0386 10.2438 79.8829 9.39948 79.8829 8.35798C79.8829 7.31647 79.0386 6.47217 77.9971 6.47217C76.9556 6.47217 76.1113 7.31647 76.1113 8.35798C76.1113 9.39948 76.9556 10.2438 77.9971 10.2438Z" fill="#071830"/>
<path d="M101.464 17.5386C102.992 17.5386 104.231 16.2998 104.231 14.7716C104.231 13.2435 102.992 12.0046 101.464 12.0046C99.9361 12.0046 98.6973 13.2435 98.6973 14.7716C98.6973 16.2998 99.9361 17.5386 101.464 17.5386Z" fill="#071830"/>
<path d="M93.0512 15.3658C94.5793 15.3658 95.8182 14.1269 95.8182 12.5988C95.8182 11.0706 94.5793 9.83179 93.0512 9.83179C91.523 9.83179 90.2842 11.0706 90.2842 12.5988C90.2842 14.1269 91.523 15.3658 93.0512 15.3658Z" fill="#071830"/>
<path d="M84.432 15.7779C85.9602 15.7779 87.199 14.539 87.199 13.0109C87.199 11.4827 85.9602 10.2439 84.432 10.2439C82.9039 10.2439 81.665 11.4827 81.665 13.0109C81.665 14.539 82.9039 15.7779 84.432 15.7779Z" fill="#071830"/>
<path d="M76.2934 18.75C77.8215 18.75 79.0603 17.5112 79.0603 15.9831C79.0603 14.4549 77.8215 13.2161 76.2934 13.2161C74.7652 13.2161 73.5264 14.4549 73.5264 15.9831C73.5264 17.5112 74.7652 18.75 76.2934 18.75Z" fill="#071830"/>
<path d="M69.685 24.2825C71.2131 24.2825 72.4519 23.0437 72.4519 21.5155C72.4519 19.9874 71.2131 18.7485 69.685 18.7485C68.1568 18.7485 66.918 19.9874 66.918 21.5155C66.918 23.0437 68.1568 24.2825 69.685 24.2825Z" fill="#071830"/>
<path d="M64.9076 31.5525C66.4358 31.5525 67.6746 30.3137 67.6746 28.7855C67.6746 27.2574 66.4358 26.0186 64.9076 26.0186C63.3794 26.0186 62.1406 27.2574 62.1406 28.7855C62.1406 30.3137 63.3794 31.5525 64.9076 31.5525Z" fill="#071830"/>
<path d="M62.7133 39.9661C64.2414 39.9661 65.4803 38.7273 65.4803 37.1991C65.4803 35.671 64.2414 34.4321 62.7133 34.4321C61.1851 34.4321 59.9463 35.671 59.9463 37.1991C59.9463 38.7273 61.1851 39.9661 62.7133 39.9661Z" fill="#071830"/>
<path d="M63.0551 48.5403C64.5832 48.5403 65.8221 47.3015 65.8221 45.7733C65.8221 44.2452 64.5832 43.0063 63.0551 43.0063C61.5269 43.0063 60.2881 44.2452 60.2881 45.7733C60.2881 47.3015 61.5269 48.5403 63.0551 48.5403Z" fill="#071830"/>
<path d="M66.142 56.5867C67.6702 56.5867 68.909 55.3479 68.909 53.8197C68.909 52.2916 67.6702 51.0527 66.142 51.0527C64.6138 51.0527 63.375 52.2916 63.375 53.8197C63.375 55.3479 64.6138 56.5867 66.142 56.5867Z" fill="#071830"/>
<path d="M71.7318 63.1253C73.26 63.1253 74.4988 61.8865 74.4988 60.3583C74.4988 58.8301 73.26 57.5913 71.7318 57.5913C70.2037 57.5913 68.9648 58.8301 68.9648 60.3583C68.9648 61.8865 70.2037 63.1253 71.7318 63.1253Z" fill="#071830"/>
<path d="M78.9232 67.9725C80.4514 67.9725 81.6902 66.7336 81.6902 65.2055C81.6902 63.6773 80.4514 62.4385 78.9232 62.4385C77.3951 62.4385 76.1562 63.6773 76.1562 65.2055C76.1562 66.7336 77.3951 67.9725 78.9232 67.9725Z" fill="#071830"/>
<path d="M87.2611 70.1099C88.7893 70.1099 90.0281 68.8711 90.0281 67.3429C90.0281 65.8147 88.7893 64.5759 87.2611 64.5759C85.733 64.5759 84.4941 65.8147 84.4941 67.3429C84.4941 68.8711 85.733 70.1099 87.2611 70.1099Z" fill="#071830"/>
<path d="M96.0404 69.8367C97.5686 69.8367 98.8074 68.5979 98.8074 67.0697C98.8074 65.5416 97.5686 64.3027 96.0404 64.3027C94.5123 64.3027 93.2734 65.5416 93.2734 67.0697C93.2734 68.5979 94.5123 69.8367 96.0404 69.8367Z" fill="#071830"/>
<path d="M104.2 66.7378C105.728 66.7378 106.967 65.499 106.967 63.9708C106.967 62.4427 105.728 61.2039 104.2 61.2039C102.671 61.2039 101.433 62.4427 101.433 63.9708C101.433 65.499 102.671 66.7378 104.2 66.7378Z" fill="#071830"/>
<path d="M110.785 61.2393C112.313 61.2393 113.552 60.0005 113.552 58.4723C113.552 56.9441 112.313 55.7053 110.785 55.7053C109.256 55.7053 108.018 56.9441 108.018 58.4723C108.018 60.0005 109.256 61.2393 110.785 61.2393Z" fill="#071830"/>
<path d="M73.7442 32.3287C75.4863 32.3287 76.8985 30.9164 76.8985 29.1744C76.8985 27.4323 75.4863 26.02 73.7442 26.02C72.0021 26.02 70.5898 27.4323 70.5898 29.1744C70.5898 30.9164 72.0021 32.3287 73.7442 32.3287Z" fill="#071830"/>
<path d="M70.5899 44.2393C72.332 44.2393 73.7442 42.8271 73.7442 41.085C73.7442 39.3429 72.332 37.9307 70.5899 37.9307C68.8478 37.9307 67.4355 39.3429 67.4355 41.085C67.4355 42.8271 68.8478 44.2393 70.5899 44.2393Z" fill="#071830"/>
<path d="M74.8877 55.6251C76.6298 55.6251 78.0421 54.2128 78.0421 52.4707C78.0421 50.7287 76.6298 49.3164 74.8877 49.3164C73.1456 49.3164 71.7334 50.7287 71.7334 52.4707C71.7334 54.2128 73.1456 55.6251 74.8877 55.6251Z" fill="#071830"/>
<path d="M85.1709 62.119C86.913 62.119 88.3253 60.7067 88.3253 58.9646C88.3253 57.2225 86.913 55.8103 85.1709 55.8103C83.4288 55.8103 82.0166 57.2225 82.0166 58.9646C82.0166 60.7067 83.4288 62.119 85.1709 62.119Z" fill="#071830"/>
<path d="M97.4356 61.6268C99.1777 61.6268 100.59 60.2145 100.59 58.4725C100.59 56.7304 99.1777 55.3181 97.4356 55.3181C95.6935 55.3181 94.2812 56.7304 94.2812 58.4725C94.2812 60.2145 95.6935 61.6268 97.4356 61.6268Z" fill="#071830"/>
<path d="M94.0493 47.8289C93.7591 48.065 93.4073 48.244 92.9937 48.3613C92.5801 48.4801 92.1418 48.5388 91.682 48.5388C90.5246 48.5388 89.6295 48.2363 88.9983 47.6314C88.3671 47.0264 88.0508 46.1453 88.0508 44.9878V35.5356H90.5168V37.9431H93.3378V39.9168H90.5168V44.9292C90.5168 45.4416 90.6449 45.8335 90.9011 46.1036C91.1573 46.3737 91.5153 46.5079 91.9767 46.5079C92.5292 46.5079 92.9891 46.3629 93.3579 46.0743L94.0493 47.8304V47.8289Z" fill="#071830"/>
<path d="M99.5158 47.849C98.6608 47.3891 97.9926 46.7471 97.5127 45.9246C97.0327 45.102 96.792 44.1715 96.792 43.1329C96.792 42.0943 97.0312 41.1668 97.5127 40.3505C97.9926 39.5357 98.6608 38.8968 99.5158 38.4369C100.371 37.977 101.331 37.7471 102.397 37.7471C103.463 37.7471 104.442 37.977 105.298 38.4369C106.153 38.8983 106.821 39.5357 107.301 40.3505C107.781 41.1668 108.022 42.0943 108.022 43.1329C108.022 44.1715 107.781 45.1036 107.301 45.9246C106.821 46.7471 106.153 47.3875 105.298 47.849C104.443 48.3088 103.476 48.5403 102.397 48.5403C101.318 48.5403 100.371 48.3104 99.5158 47.849ZM104.645 45.5203C105.238 44.9153 105.533 44.119 105.533 43.1329C105.533 42.1468 105.236 41.3505 104.645 40.7455C104.053 40.1406 103.304 39.8381 102.395 39.8381C101.486 39.8381 100.741 40.1406 100.156 40.7455C99.5713 41.3505 99.2781 42.1468 99.2781 43.1329C99.2781 44.119 99.5713 44.9153 100.156 45.5203C100.741 46.1252 101.488 46.4277 102.395 46.4277C103.303 46.4277 104.053 46.1252 104.645 45.5203Z" fill="#071830"/>
<path d="M118.42 37.7471V40.0958C118.21 40.0557 118.018 40.0372 117.847 40.0372C116.887 40.0372 116.137 40.3165 115.597 40.8752C115.057 41.4338 114.788 42.2394 114.788 43.2918V48.403H112.322V37.8659H114.671V39.4045C115.381 38.2995 116.631 37.7471 118.42 37.7471V37.7471Z" fill="#071830"/>
<path d="M138.744 37.8643V43.6854C138.744 45.2239 138.343 46.4184 137.541 47.2672C136.738 48.1159 135.587 48.5403 134.087 48.5403C132.468 48.5403 131.304 47.994 130.595 46.903C130.226 47.4554 129.757 47.8675 129.184 48.136C128.611 48.4045 127.917 48.5403 127.102 48.5403C125.602 48.5403 124.454 48.1159 123.659 47.2672C122.863 46.4184 122.465 45.2255 122.465 43.6854V37.8643H124.931V43.4678C124.931 44.4678 125.105 45.2039 125.454 45.6776C125.803 46.1514 126.358 46.3875 127.121 46.3875C127.883 46.3875 128.449 46.1483 128.818 45.6668C129.186 45.1869 129.371 44.4539 129.371 43.4662V37.8628H131.837V43.4662C131.837 44.4523 132.02 45.1869 132.389 45.6668C132.758 46.1468 133.323 46.3875 134.087 46.3875C134.851 46.3875 135.405 46.1514 135.753 45.6776C136.102 45.2039 136.277 44.4678 136.277 43.4678V37.8643H138.743H138.744Z" fill="#071830"/>
<path d="M154.115 37.8644V48.4015H151.766V47.0404C151.358 47.5404 150.855 47.9154 150.257 48.1654C149.658 48.4154 148.997 48.5404 148.273 48.5404C147.247 48.5404 146.331 48.3166 145.52 47.8691C144.712 47.4216 144.081 46.7904 143.627 45.974C143.173 45.1592 142.946 44.2117 142.946 43.133C142.946 42.0543 143.173 41.1098 143.627 40.3012C144.081 39.4925 144.712 38.8644 145.52 38.4169C146.329 37.9694 147.247 37.7456 148.273 37.7456C148.957 37.7456 149.585 37.8644 150.158 38.1005C150.73 38.3367 151.226 38.6854 151.647 39.1468V37.8644H154.113H154.115ZM150.8 45.5203C151.392 44.9154 151.687 44.1191 151.687 43.133C151.687 42.1469 151.391 41.3506 150.8 40.7456C150.207 40.1407 149.459 39.8382 148.55 39.8382C147.641 39.8382 146.895 40.1407 146.31 40.7456C145.726 41.3506 145.432 42.1469 145.432 43.133C145.432 44.1191 145.726 44.9154 146.31 45.5203C146.895 46.1253 147.642 46.4277 148.55 46.4277C149.457 46.4277 150.207 46.1253 150.8 45.5203Z" fill="#071830"/>
<path d="M160.034 48.2041C159.217 47.9803 158.566 47.6979 158.08 47.3553L159.028 45.4803C159.501 45.7966 160.069 46.0497 160.734 46.2395C161.398 46.4309 162.052 46.525 162.697 46.525C164.171 46.525 164.907 46.1377 164.907 45.3615C164.907 44.9942 164.721 44.7365 164.346 44.5914C163.971 44.4463 163.369 44.309 162.54 44.1778C161.671 44.0466 160.964 43.8954 160.418 43.7241C159.872 43.5528 159.398 43.2534 158.997 42.826C158.596 42.3985 158.395 41.8028 158.395 41.0405C158.395 40.0404 158.813 39.2411 159.648 38.6423C160.483 38.0435 161.611 37.7441 163.032 37.7441C163.756 37.7441 164.48 37.8259 165.204 37.9911C165.927 38.1562 166.518 38.3753 166.98 38.6516L166.032 40.5266C165.137 40.0003 164.131 39.738 163.014 39.738C162.29 39.738 161.741 39.846 161.366 40.0636C160.991 40.2812 160.804 40.5667 160.804 40.9216C160.804 41.3167 161.004 41.596 161.406 41.7596C161.807 41.9247 162.429 42.079 163.27 42.2226C164.111 42.3537 164.802 42.505 165.342 42.6763C165.881 42.8476 166.346 43.1361 166.733 43.5451C167.12 43.9525 167.315 44.5312 167.315 45.2812C167.315 46.2673 166.887 47.0575 166.032 47.6485C165.177 48.2411 164.012 48.5359 162.54 48.5359C161.685 48.5359 160.85 48.4232 160.034 48.201V48.2041Z" fill="#071830"/>
<path d="M180.554 38.9107C181.357 39.6869 181.758 40.8382 181.758 42.3644V48.403H179.292V42.6808C179.292 41.7595 179.074 41.0666 178.641 40.599C178.207 40.1329 177.588 39.8984 176.786 39.8984C175.878 39.8984 175.161 40.1715 174.635 40.7178C174.108 41.2641 173.846 42.0496 173.846 43.0758V48.403H171.38V33.761H173.846V39.0882C174.253 38.6545 174.756 38.3227 175.355 38.0913C175.954 37.8613 176.621 37.7456 177.358 37.7456C178.687 37.7456 179.752 38.1329 180.554 38.9092V38.9107Z" fill="#071830"/>
</g>
<defs>
<clipPath id="clip0_951_4096">
<rect width="127.516" height="71.5373" fill="white" transform="translate(54.2422 4.23145)"/>
</clipPath>
</defs>
</svg>
