<svg width="236" height="81" viewBox="0 0 236 81" fill="none" xmlns="http://www.w3.org/2000/svg">
<rect y="0.578857" width="236" height="80" rx="16" fill="#C7DBF2"/>
<path d="M38.391 23.3508H18.3447L8.35352 40.5792L18.3447 57.8715H38.391L48.3822 40.5792L38.391 23.3508ZM19.2413 37.1847C21.2588 31.7729 25.806 28.3144 30.2572 28.3144H30.9937C29.1044 30.3959 27.5353 33.9504 27.183 40.0028C26.9588 45.8309 24.9414 49.4495 22.6998 51.7552C18.6649 49.0973 17.0958 43.0449 19.2413 37.1847ZM37.4303 44.1657C35.4129 49.5136 30.8656 53.0361 26.3824 53.0361C26.0942 53.0361 25.806 52.972 25.5178 52.972C27.8235 50.154 29.6167 46.0551 29.9049 40.0668C30.1932 33.5021 32.2746 30.7801 33.9398 29.5953C38.0068 32.2852 39.5118 38.3376 37.4303 44.1657Z" fill="#071830"/>
<path d="M55.5547 23.3188H67.6273C71.1819 23.3188 73.8077 24.2795 75.4729 26.2329C77.1381 28.1543 77.9707 31.0043 77.9707 34.783C77.9707 38.3376 77.1381 41.1556 75.4409 43.2371C73.7437 45.3186 71.2139 46.3754 67.8195 46.3754H63.9447V57.8716H55.5547V23.3188ZM66.2183 39.8427C67.243 39.8427 68.0436 39.4904 68.556 38.7539C69.0684 38.0174 69.3245 36.7685 69.3245 34.9111C69.3245 33.0218 69.0684 31.7088 68.588 30.9403C68.0756 30.2038 67.3391 29.8195 66.3784 29.8195H63.9447V39.8107H66.2183V39.8427Z" fill="#071830"/>
<path d="M81.3328 23.3188H101.411V29.9476H89.5947V36.9286H100.322V43.5573H89.5947V51.2108H101.795V57.8396H81.3008V23.3188H81.3328Z" fill="#071830"/>
<path d="M104.23 38.3372C104.23 35.4231 104.583 32.9893 105.319 31.0039C106.056 29.0185 107.048 27.4173 108.329 26.2325C109.61 25.0476 111.115 24.183 112.877 23.6707C114.638 23.1583 116.559 22.9021 118.673 22.9021C120.882 22.9021 123.028 23.1263 125.141 23.5746V30.2994C124.181 30.0112 123.284 29.8511 122.516 29.755C121.715 29.6589 120.85 29.6269 119.89 29.6269C118.993 29.6269 118.128 29.691 117.328 29.8511C116.527 30.0112 115.823 30.3634 115.214 30.9078C114.606 31.4522 114.126 32.2528 113.773 33.2775C113.421 34.3023 113.229 35.6793 113.229 37.4405V43.717C113.229 45.4783 113.421 46.8552 113.805 47.88C114.19 48.9047 114.67 49.6733 115.31 50.2497C115.919 50.7941 116.655 51.1463 117.456 51.3064C118.257 51.4666 119.121 51.5306 120.018 51.5306C121.075 51.5306 122.067 51.4666 122.996 51.3705C123.925 51.2744 124.725 51.1143 125.398 50.9542V57.5829C124.309 57.8391 123.188 57.9992 122.099 58.0953C121.01 58.1914 119.922 58.2554 118.801 58.2554C116.687 58.2554 114.766 57.9992 112.973 57.4869C111.179 56.9745 109.674 56.1099 108.361 54.925C107.08 53.7402 106.056 52.139 105.319 50.1536C104.583 48.1682 104.23 45.7345 104.23 42.8204V38.3372Z" fill="#071830"/>
<path d="M135.26 30.1397H127.799V23.3188H151.464V30.1397H144.002V57.8396H135.26V30.1397V30.1397Z" fill="#071830"/>
<path d="M55.5547 23.3188H67.6273C71.1819 23.3188 73.8077 24.2795 75.4729 26.2329C77.1381 28.1543 77.9707 31.0043 77.9707 34.783C77.9707 38.3376 77.1381 41.1556 75.4409 43.2371C73.7437 45.3186 71.2139 46.3754 67.8195 46.3754H63.9447V57.8716H55.5547V23.3188ZM66.2183 39.8427C67.243 39.8427 68.0436 39.4904 68.556 38.7539C69.0684 38.0174 69.3245 36.7685 69.3245 34.9111C69.3245 33.0218 69.0684 31.7088 68.588 30.9403C68.0756 30.2038 67.3391 29.8195 66.3784 29.8195H63.9447V39.8107H66.2183V39.8427Z" fill="#071830"/>
<path d="M81.3328 23.3188H101.411V29.9476H89.5947V36.9286H100.322V43.5573H89.5947V51.2108H101.795V57.8396H81.3008V23.3188H81.3328Z" fill="#071830"/>
<path d="M104.23 38.3372C104.23 35.4231 104.583 32.9893 105.319 31.0039C106.056 29.0185 107.048 27.4173 108.329 26.2325C109.61 25.0476 111.115 24.183 112.877 23.6707C114.638 23.1583 116.559 22.9021 118.673 22.9021C120.882 22.9021 123.028 23.1263 125.141 23.5746V30.2994C124.181 30.0112 123.284 29.8511 122.516 29.755C121.715 29.6589 120.85 29.6269 119.89 29.6269C118.993 29.6269 118.128 29.691 117.328 29.8511C116.527 30.0112 115.823 30.3634 115.214 30.9078C114.606 31.4522 114.126 32.2528 113.773 33.2775C113.421 34.3023 113.229 35.6793 113.229 37.4405V43.717C113.229 45.4783 113.421 46.8552 113.805 47.88C114.19 48.9047 114.67 49.6733 115.31 50.2497C115.919 50.7941 116.655 51.1463 117.456 51.3064C118.257 51.4666 119.121 51.5306 120.018 51.5306C121.075 51.5306 122.067 51.4666 122.996 51.3705C123.925 51.2744 124.725 51.1143 125.398 50.9542V57.5829C124.309 57.8391 123.188 57.9992 122.099 58.0953C121.01 58.1914 119.922 58.2554 118.801 58.2554C116.687 58.2554 114.766 57.9992 112.973 57.4869C111.179 56.9745 109.674 56.1099 108.361 54.925C107.08 53.7402 106.056 52.139 105.319 50.1536C104.583 48.1682 104.23 45.7345 104.23 42.8204V38.3372Z" fill="#071830"/>
<path d="M135.26 30.1397H127.799V23.3188H151.464V30.1397H144.002V57.8396H135.26V30.1397V30.1397Z" fill="#071830"/>
<path d="M153.706 38.3372C153.706 35.4231 154.058 32.9893 154.795 31.0039C155.531 29.0185 156.524 27.4173 157.805 26.2325C159.086 25.0476 160.591 24.183 162.352 23.6707C164.114 23.1583 166.035 22.9021 168.148 22.9021C170.358 22.9021 172.504 23.1263 174.617 23.5746V30.2994C173.656 30.0112 172.76 29.8511 171.991 29.755C171.191 29.6589 170.326 29.6269 169.365 29.6269C168.469 29.6269 167.604 29.691 166.803 29.8511C166.003 30.0112 165.298 30.3634 164.69 30.9078C164.081 31.4522 163.601 32.2528 163.249 33.2775C162.897 34.3023 162.704 35.6793 162.704 37.4405V43.717C162.704 45.4783 162.897 46.8552 163.281 47.88C163.665 48.9047 164.146 49.6733 164.786 50.2497C165.394 50.7941 166.131 51.1463 166.932 51.3064C167.732 51.4666 168.597 51.5306 169.493 51.5306C170.55 51.5306 171.543 51.4666 172.471 51.3705C173.4 51.2744 174.201 51.1143 174.873 50.9542V57.5829C173.784 57.8391 172.664 57.9992 171.575 58.0953C170.486 58.1914 169.397 58.2554 168.276 58.2554C166.163 58.2554 164.242 57.9992 162.448 57.4869C160.655 56.9745 159.15 56.1099 157.837 54.925C156.556 53.7402 155.531 52.139 154.795 50.1536C154.058 48.1682 153.706 45.7345 153.706 42.8204V38.3372Z" fill="#071830"/>
<path d="M190.5 58.5758C188.515 58.5758 186.689 58.2876 185.056 57.7112C183.423 57.1348 182.046 56.2381 180.893 54.9572C179.74 53.7083 178.844 52.0431 178.235 50.0257C177.627 48.0082 177.307 45.5425 177.307 42.6604V38.4974C177.307 35.5833 177.627 33.1496 178.267 31.1322C178.908 29.1147 179.804 27.4815 180.957 26.2006C182.11 24.9517 183.487 24.0231 185.12 23.4467C186.753 22.8702 188.547 22.582 190.5 22.582C192.485 22.582 194.311 22.8702 195.944 23.4467C197.577 24.0231 198.954 24.9197 200.075 26.2006C201.228 27.4495 202.092 29.1147 202.701 31.1322C203.309 33.1496 203.629 35.6154 203.629 38.4974V42.6604C203.629 45.5745 203.341 48.0082 202.733 50.0257C202.124 52.0431 201.26 53.6763 200.107 54.9572C198.954 56.2061 197.577 57.1348 195.976 57.7112C194.343 58.2876 192.518 58.5758 190.5 58.5758ZM190.532 29.1147C189.603 29.1147 188.835 29.3069 188.29 29.7231C187.714 30.1074 187.266 30.7159 186.978 31.4844C186.657 32.253 186.465 33.2457 186.337 34.3985C186.209 35.5833 186.145 36.9603 186.145 38.5295V42.5643C186.145 44.1655 186.209 45.5425 186.337 46.6953C186.465 47.8801 186.657 48.8408 186.978 49.6094C187.298 50.3779 187.714 50.9864 188.258 51.3706C188.803 51.7549 189.539 51.9791 190.436 51.9791C191.365 51.9791 192.133 51.7869 192.678 51.3706C193.254 50.9864 193.702 50.3779 193.991 49.6094C194.311 48.8408 194.503 47.8481 194.599 46.6953C194.695 45.5104 194.759 44.1335 194.759 42.5643V38.5295C194.759 35.3592 194.503 32.9895 193.959 31.4524C193.446 29.8833 192.293 29.1147 190.532 29.1147Z" fill="#071830"/>
<path d="M207.665 23.3184H227.647V29.9471H216.055V37.5365H226.559V44.2613H216.055V57.807H207.665V23.3184V23.3184Z" fill="#071830"/>
<path d="M153.706 38.3372C153.706 35.4231 154.058 32.9893 154.795 31.0039C155.531 29.0185 156.524 27.4173 157.805 26.2325C159.086 25.0476 160.591 24.183 162.352 23.6707C164.114 23.1583 166.035 22.9021 168.148 22.9021C170.358 22.9021 172.504 23.1263 174.617 23.5746V30.2994C173.656 30.0112 172.76 29.8511 171.991 29.755C171.191 29.6589 170.326 29.6269 169.365 29.6269C168.469 29.6269 167.604 29.691 166.803 29.8511C166.003 30.0112 165.298 30.3634 164.69 30.9078C164.081 31.4522 163.601 32.2528 163.249 33.2775C162.897 34.3023 162.704 35.6793 162.704 37.4405V43.717C162.704 45.4783 162.897 46.8552 163.281 47.88C163.665 48.9047 164.146 49.6733 164.786 50.2497C165.394 50.7941 166.131 51.1463 166.932 51.3064C167.732 51.4666 168.597 51.5306 169.493 51.5306C170.55 51.5306 171.543 51.4666 172.471 51.3705C173.4 51.2744 174.201 51.1143 174.873 50.9542V57.5829C173.784 57.8391 172.664 57.9992 171.575 58.0953C170.486 58.1914 169.397 58.2554 168.276 58.2554C166.163 58.2554 164.242 57.9992 162.448 57.4869C160.655 56.9745 159.15 56.1099 157.837 54.925C156.556 53.7402 155.531 52.139 154.795 50.1536C154.058 48.1682 153.706 45.7345 153.706 42.8204V38.3372Z" fill="#071830"/>
<path d="M190.5 58.5758C188.515 58.5758 186.689 58.2876 185.056 57.7112C183.423 57.1348 182.046 56.2381 180.893 54.9572C179.74 53.7083 178.844 52.0431 178.235 50.0257C177.627 48.0082 177.307 45.5425 177.307 42.6604V38.4974C177.307 35.5833 177.627 33.1496 178.267 31.1322C178.908 29.1147 179.804 27.4815 180.957 26.2006C182.11 24.9517 183.487 24.0231 185.12 23.4467C186.753 22.8702 188.547 22.582 190.5 22.582C192.485 22.582 194.311 22.8702 195.944 23.4467C197.577 24.0231 198.954 24.9197 200.075 26.2006C201.228 27.4495 202.092 29.1147 202.701 31.1322C203.309 33.1496 203.629 35.6154 203.629 38.4974V42.6604C203.629 45.5745 203.341 48.0082 202.733 50.0257C202.124 52.0431 201.26 53.6763 200.107 54.9572C198.954 56.2061 197.577 57.1348 195.976 57.7112C194.343 58.2876 192.518 58.5758 190.5 58.5758ZM190.532 29.1147C189.603 29.1147 188.835 29.3069 188.29 29.7231C187.714 30.1074 187.266 30.7159 186.978 31.4844C186.657 32.253 186.465 33.2457 186.337 34.3985C186.209 35.5833 186.145 36.9603 186.145 38.5295V42.5643C186.145 44.1655 186.209 45.5425 186.337 46.6953C186.465 47.8801 186.657 48.8408 186.978 49.6094C187.298 50.3779 187.714 50.9864 188.258 51.3706C188.803 51.7549 189.539 51.9791 190.436 51.9791C191.365 51.9791 192.133 51.7869 192.678 51.3706C193.254 50.9864 193.702 50.3779 193.991 49.6094C194.311 48.8408 194.503 47.8481 194.599 46.6953C194.695 45.5104 194.759 44.1335 194.759 42.5643V38.5295C194.759 35.3592 194.503 32.9895 193.959 31.4524C193.446 29.8833 192.293 29.1147 190.532 29.1147Z" fill="#071830"/>
<path d="M207.665 23.3184H227.647V29.9471H216.055V37.5365H226.559V44.2613H216.055V57.807H207.665V23.3184V23.3184Z" fill="#071830"/>
</svg>
