<svg width="236" height="80" viewBox="0 0 236 80" fill="none" xmlns="http://www.w3.org/2000/svg">
<rect width="236" height="80" rx="16" fill="#C7DBF2"/>
<g clip-path="url(#clip0_951_4010)">
<path d="M117.317 41.7173C116.644 40.9033 115.95 40.0618 115.243 39.1826C111.654 34.7281 109.803 29.7034 108.862 26.0629C108.673 25.3348 107.79 25.0428 107.206 25.5134C102.693 29.1368 99.9388 34.8655 100.437 41.209C101.131 50.0356 108.226 57.1553 117.049 57.8937C119.333 58.086 121.538 57.849 123.592 57.2652C124.701 56.9492 125.368 55.8261 125.117 54.6962C124.049 49.8776 121.191 46.4122 117.317 41.7138V41.7173Z" fill="#071830"/>
<path d="M120.36 21.5911C117.767 21.3439 114.703 22.1235 112.409 22.8688C112.938 25.7778 115.016 31.2386 118.986 36.1671C119.683 37.0326 120.363 37.8569 121.026 38.6605C125.031 43.5169 128.163 47.3154 129.441 53.5147C134.002 49.9153 137.244 44.7293 136.78 38.372C136.138 29.5729 129.142 22.4292 120.36 21.5946V21.5911Z" fill="#071830"/>
<path d="M143.526 46.4362L143.416 46.4087C140.511 57.5708 130.417 65.367 118.866 65.367C104.878 65.367 93.4993 53.9886 93.4993 39.9999C93.4993 26.0113 104.878 14.6328 118.866 14.6328C128.613 14.6328 137.327 20.0593 141.634 28.8001L148.619 23.6381C145.875 18.6546 141.922 14.4268 137.1 11.3529C131.653 7.88065 125.351 6.04663 118.866 6.04663C100.145 6.04663 84.9131 21.2786 84.9131 39.9999C84.9131 58.7213 100.145 73.9532 118.866 73.9532C133.576 73.9532 146.514 64.5016 151.085 50.7121L143.526 46.4362V46.4362Z" fill="#071830"/>
</g>
<defs>
<clipPath id="clip0_951_4010">
<rect width="66.1722" height="67.9066" fill="white" transform="translate(84.9131 6.04663)"/>
</clipPath>
</defs>
</svg>
