<?xml version="1.0" standalone="no"?>
<!DOCTYPE svg PUBLIC "-//W3C//DTD SVG 20010904//EN"
 "http://www.w3.org/TR/2001/REC-SVG-20010904/DTD/svg10.dtd">
<svg version="1.0" xmlns="http://www.w3.org/2000/svg"
 width="983.000000pt" height="333.000000pt" viewBox="0 0 983.000000 333.000000"
 preserveAspectRatio="xMidYMid meet">

<g transform="translate(0.000000,333.000000) scale(0.100000,-0.100000)"
fill="#000000" stroke="none">
<path d="M2230 3098 c0 -1 -1 -186 -3 -411 l-2 -407 231 0 c187 0 239 3 279
16 176 61 196 302 32 386 l-29 14 40 27 c97 64 110 216 26 301 -63 63 -96 70
-346 74 -126 2 -228 2 -228 0z m400 -188 c13 -13 20 -33 20 -60 0 -66 -23 -80
-130 -80 l-90 0 0 80 0 80 90 0 c77 0 93 -3 110 -20z m14 -319 c32 -30 35 -87
7 -122 -17 -22 -28 -24 -120 -27 l-101 -4 0 92 0 92 94 -4 c84 -3 97 -6 120
-27z"/>
<path d="M2990 2691 c0 -440 1 -446 47 -382 12 15 50 50 85 76 l63 47 5 76 c6
99 25 107 71 33 18 -28 35 -51 38 -51 3 1 33 7 66 15 33 8 75 15 93 15 17 0
32 2 32 4 0 3 -9 21 -21 40 l-21 36 29 11 c158 60 202 281 79 403 -69 70 -108
79 -353 84 l-213 4 0 -411z m406 206 c35 -41 33 -99 -5 -138 -28 -28 -34 -29
-115 -29 l-86 0 0 101 0 101 91 -4 c85 -3 92 -5 115 -31z"/>
<path d="M3858 2729 c-126 -349 -134 -374 -124 -410 l10 -39 82 0 83 0 22 70
23 70 129 0 129 0 51 46 c28 25 74 58 103 72 l52 27 -97 265 -96 265 -116 3
-116 3 -135 -372z m301 -13 c23 -65 41 -122 41 -127 0 -5 -42 -9 -94 -9 l-94
0 46 140 c26 77 50 134 53 127 4 -6 26 -65 48 -131z"/>
<path d="M4610 2824 l0 -276 38 -37 c46 -45 71 -95 85 -172 11 -58 12 -59 44
-59 l33 0 0 247 0 246 163 -246 162 -247 103 0 102 0 0 410 0 410 -100 0 -100
0 -2 -251 -3 -251 -164 251 -164 251 -99 0 -98 0 0 -276z"/>
<path d="M5480 2691 l0 -411 199 0 c169 0 209 3 262 19 119 37 212 125 255
241 26 70 24 229 -5 301 -45 116 -124 192 -241 231 -56 18 -94 22 -267 26
l-203 4 0 -411z m421 201 c43 -22 59 -38 81 -81 45 -86 37 -215 -19 -281 -44
-53 -97 -73 -193 -74 l-85 -1 -3 233 -2 232 84 0 c72 0 91 -4 137 -28z"/>
<path d="M6330 2690 l0 -410 250 0 250 0 0 80 0 80 -150 0 -150 0 0 85 0 84
131 3 131 3 0 75 0 75 -131 3 -131 3 0 79 0 80 150 0 150 0 0 85 0 85 -250 0
-250 0 0 -410z"/>
<path d="M6960 3098 c0 -2 -1 -187 -3 -411 l-2 -409 221 4 220 3 77 38 c90 44
156 113 189 197 19 45 23 75 23 170 0 104 -3 120 -27 172 -54 116 -157 196
-285 223 -57 12 -413 23 -413 13z m432 -214 c61 -41 93 -110 93 -194 -1 -81
-16 -127 -58 -170 -44 -45 -88 -62 -184 -68 l-83 -5 0 238 0 237 95 -4 c85 -3
99 -7 137 -34z"/>
<path d="M4409 2501 c-132 -51 -238 -202 -319 -451 -21 -63 -43 -146 -50 -185
-8 -38 -20 -75 -27 -82 -8 -6 -62 -14 -121 -17 -59 -4 -133 -9 -164 -12 -68
-5 -64 -17 -42 132 23 151 23 365 1 423 -24 63 -61 107 -110 134 -57 30 -177
29 -258 -2 -220 -84 -395 -315 -305 -400 35 -33 63 -22 110 39 76 100 164 165
241 177 29 5 39 1 65 -25 29 -30 30 -32 30 -131 0 -56 -7 -147 -15 -204 -25
-171 -14 -154 -103 -159 -42 -3 -89 -11 -104 -18 -36 -17 -62 -72 -54 -115 10
-53 38 -70 117 -70 59 0 69 -3 69 -17 0 -10 -23 -114 -50 -233 -33 -139 -48
-225 -44 -243 22 -91 156 -106 211 -23 29 43 43 89 93 314 22 100 43 192 45
205 5 19 12 22 58 22 28 0 106 7 172 15 66 8 126 15 133 15 9 0 12 -29 12
-112 1 -247 72 -404 219 -475 49 -25 67 -28 151 -28 82 0 103 4 152 27 32 15
73 39 92 53 l34 26 23 -30 c33 -45 111 -81 176 -81 83 0 145 32 203 105 l28
35 19 -37 c30 -57 83 -95 141 -101 66 -6 111 10 186 67 l63 48 21 -38 c45 -78
167 -102 271 -54 29 14 71 39 92 56 31 24 39 27 39 14 0 -27 31 -72 57 -84 39
-18 89 -13 118 12 20 17 35 51 61 142 41 142 119 308 169 361 49 51 60 38 56
-65 -4 -120 31 -171 118 -171 131 0 255 187 176 266 -13 13 -38 27 -53 30 -28
6 -29 8 -21 42 33 144 -23 221 -139 192 -107 -26 -213 -130 -297 -289 -54
-105 -57 -86 -15 87 38 154 39 189 6 203 -35 16 -110 2 -145 -27 -16 -13 -36
-42 -45 -63 -22 -56 -54 -221 -62 -323 l-7 -86 -56 -56 c-31 -30 -69 -60 -84
-65 -24 -9 -31 -8 -53 14 -34 34 -32 96 11 314 55 280 52 296 -55 296 -97 -1
-114 -28 -160 -243 -11 -54 -24 -135 -29 -181 -9 -83 -9 -84 -62 -137 -63 -64
-97 -79 -129 -57 -21 15 -22 21 -17 92 4 42 18 136 32 210 14 73 25 155 25
182 0 63 -24 81 -102 77 -50 -3 -54 -1 -68 27 -15 29 -17 30 -87 29 -101 0
-196 -48 -284 -141 -89 -95 -159 -249 -159 -351 0 -55 -110 -122 -200 -122
-22 0 -51 9 -71 23 -71 48 -99 145 -99 342 l0 110 93 47 c230 118 335 272 353
518 17 222 -107 348 -277 281z m109 -153 c29 -37 20 -180 -18 -282 -26 -69
-107 -159 -179 -199 -62 -34 -61 -35 -27 108 29 121 76 251 111 311 38 65 88
92 113 62z m541 -904 c-50 -246 -89 -311 -172 -290 -84 21 -70 220 26 363 37
56 117 113 157 113 l28 0 -39 -186z"/>
<path d="M5650 2177 c-73 -24 -110 -70 -110 -135 0 -85 51 -132 144 -132 60 0
105 19 139 59 23 27 27 42 27 90 0 50 -4 62 -26 85 -43 42 -108 55 -174 33z"/>
<path d="M3578 1064 c-10 -3 -18 -11 -18 -18 0 -23 -59 -95 -92 -112 -18 -10
-55 -18 -83 -19 -49 -1 -51 -3 -81 -53 -65 -107 -71 -268 -15 -387 151 -323
611 -323 763 1 78 166 31 387 -106 499 -78 63 -149 89 -256 91 -52 2 -103 0
-112 -2z m191 -198 c72 -38 110 -109 111 -207 0 -160 -82 -246 -226 -237 -122
8 -186 81 -192 221 -4 68 -1 84 22 132 27 54 65 87 124 106 38 12 124 4 161
-15z"/>
<path d="M6167 1028 c-27 -71 -66 -101 -136 -106 -33 -2 -67 1 -79 7 -19 10
-25 7 -51 -29 -50 -69 -66 -131 -66 -256 0 -107 1 -112 38 -186 60 -123 161
-195 300 -218 171 -27 346 51 419 187 52 97 56 93 -74 93 l-114 0 -17 -29
c-37 -63 -152 -89 -232 -52 -81 37 -117 105 -117 217 0 138 76 224 196 224 70
0 118 -21 153 -66 l25 -34 110 0 c109 0 109 0 102 23 -30 99 -125 201 -222
238 -34 13 -89 24 -138 27 l-80 4 -17 -44z"/>
<path d="M7583 1051 c-114 -39 -163 -108 -163 -227 0 -62 4 -76 30 -116 34
-52 105 -94 213 -127 112 -34 157 -66 157 -111 0 -42 -38 -70 -93 -70 -52 0
-82 21 -93 65 l-6 26 -107 -3 -106 -3 3 -35 c9 -81 83 -165 176 -197 78 -27
216 -24 281 5 101 46 154 123 155 225 0 114 -55 175 -214 233 -169 61 -186 73
-186 129 0 29 43 65 77 65 39 0 80 -27 92 -60 l10 -31 103 3 c98 3 103 4 106
26 2 12 -8 47 -21 76 -29 64 -84 108 -160 131 -69 20 -189 19 -254 -4z"/>
<path d="M1800 651 l0 -411 100 0 100 0 0 145 0 145 68 0 c85 0 176 16 222 40
80 41 131 123 133 214 2 115 -50 204 -145 247 -50 22 -67 24 -265 27 l-213 3
0 -410z m352 238 c43 -11 68 -48 68 -99 0 -39 -47 -90 -84 -91 -14 0 -50 -1
-78 -1 l-53 -1 -3 102 -3 101 58 0 c32 0 75 -5 95 -11z"/>
<path d="M2520 650 l0 -410 105 0 105 0 0 156 c0 154 0 155 22 152 16 -2 42
-40 106 -155 l84 -153 115 0 114 0 -25 43 c-13 23 -54 93 -90 155 -36 62 -66
117 -66 121 0 5 14 14 31 22 85 35 139 122 139 225 0 120 -80 217 -200 243
-28 6 -139 11 -245 11 l-195 0 0 -410z m392 229 c27 -15 49 -71 42 -108 -11
-55 -44 -74 -139 -79 l-85 -5 0 102 0 101 81 0 c44 0 89 -5 101 -11z"/>
<path d="M6700 980 l0 -80 110 0 110 0 0 -330 0 -330 100 0 100 0 0 330 0 330
110 0 110 0 0 80 0 80 -320 0 -320 0 0 -80z"/>
<path d="M4598 984 c-94 -60 -254 -82 -348 -49 -23 8 -44 15 -46 15 -2 0 -4
-160 -4 -356 l0 -356 208 4 c180 4 215 7 265 26 165 60 260 199 260 381 0 134
-58 271 -114 271 -40 0 -107 26 -147 59 l-37 28 -37 -23z m-38 -105 c25 -5 61
-21 81 -34 102 -67 117 -275 27 -362 -49 -47 -96 -63 -188 -63 l-80 0 0 235 0
235 58 0 c31 0 77 -5 102 -11z"/>
<path d="M5051 996 c-9 -11 -11 -84 -9 -273 3 -239 5 -261 24 -304 99 -214
424 -254 584 -71 64 73 72 108 78 355 l4 217 -61 0 c-34 0 -78 7 -98 15 -19 8
-39 15 -44 15 -5 0 -9 -98 -9 -217 0 -240 -3 -252 -60 -291 -29 -20 -44 -23
-88 -20 -63 6 -102 31 -119 79 -7 21 -12 104 -12 224 l-1 191 -42 11 c-24 7
-62 28 -85 47 -47 41 -47 41 -62 22z"/>
</g>
</svg>
