<svg width="236" height="80" viewBox="0 0 236 80" fill="none" xmlns="http://www.w3.org/2000/svg">
<path fill-rule="evenodd" clip-rule="evenodd" d="M138.238 8.02732C136.991 8.23199 136.048 8.89479 135.565 9.90607C135.228 10.6134 135.11 11.3359 135.11 12.6991V13.4947H134.196H133.282V14.6508V15.8069H134.196H135.11V20.2757V24.7444H136.449H137.788L137.799 20.2868L137.81 15.8292L139.117 15.8174L140.424 15.8056V14.6502V13.4947H139.106H137.788L137.789 12.7055C137.789 11.7645 137.833 11.4306 138.004 11.0619C138.237 10.5602 138.581 10.3694 139.242 10.376C139.597 10.3794 139.827 10.4034 140.01 10.4557C140.079 10.4757 140.084 10.3985 140.084 9.27826C140.084 8.17846 140.078 8.07681 140.01 8.04729C139.893 7.99691 138.518 7.98143 138.238 8.02732ZM50.7641 9.95974L49.0001 11.8051L51.6569 14.5842L54.3137 17.3632L51.6569 20.1422L49.0001 22.9213L50.7641 24.7667L52.5281 26.6121L55.1854 23.833L57.8428 21.0538L60.4996 23.833L63.1565 26.6121L64.9208 24.7668L66.685 22.9215L64.0282 20.1423L61.3713 17.3632L64.0282 14.5841L66.685 11.805L64.9208 9.95965L63.1565 8.11434L60.4996 10.8935L57.8428 13.6726L55.1854 10.8935L52.5281 8.11434L50.7641 9.95974ZM91.0779 8.82827C90.2547 8.99822 89.7297 9.81065 89.8758 10.6885C89.97 11.2541 90.2716 11.673 90.751 11.9043C90.93 11.9906 91.0306 12.0051 91.4491 12.0051C91.8976 12.0051 91.9578 11.995 92.1786 11.8816C92.6462 11.6414 92.937 11.2279 93.0198 10.6857C93.2014 9.49717 92.2492 8.58647 91.0779 8.82827ZM82.1387 9.69953C81.0122 9.8098 80.2257 10.0183 79.3875 10.4286C77.7726 11.2194 76.595 12.566 75.9574 14.3514C75.3359 16.0919 75.3096 18.2627 75.888 20.08C76.5098 22.0336 77.864 23.5838 79.6304 24.3639C82.0495 25.4322 85.0617 25.1524 87.0365 23.676C87.4027 23.4022 88.0055 22.8511 88.0055 22.7902C88.0055 22.7558 87.0983 21.8131 86.4647 21.1892L86.178 20.907L85.9545 21.1258C84.8487 22.209 83.1724 22.626 81.6101 22.2067C80.9607 22.0324 80.3537 21.6783 79.87 21.1918C79.16 20.4775 78.7447 19.6663 78.52 18.555C78.3984 17.9534 78.3876 16.8291 78.4977 16.2293C78.7938 14.6159 79.6153 13.408 80.8421 12.7823C81.4401 12.4773 81.8537 12.3752 82.5982 12.3488C83.2761 12.3248 83.6684 12.3737 84.2006 12.5486C84.837 12.7578 85.335 13.0615 85.7948 13.5207L86.0712 13.7968L87.0064 12.8493L87.9417 11.9018L87.8354 11.7821C87.4528 11.3511 86.5887 10.7182 85.9542 10.4042C84.8413 9.85347 83.3601 9.57992 82.1387 9.69953ZM96.7989 11.5716C96.7847 12.651 96.7823 12.6769 96.673 12.9207C96.4642 13.3865 96.1953 13.4947 95.2472 13.4947H94.595V14.6499V15.8051L95.4984 15.8172L96.4018 15.8292L96.4266 18.7194C96.4497 21.4167 96.4571 21.6364 96.5382 22.0098C96.8741 23.5558 97.6569 24.3947 99.0779 24.7315C99.4645 24.8232 100.638 24.8341 101.153 24.7509L101.525 24.6908V23.5179V22.345L101.323 22.3775C101.212 22.3954 100.901 22.4091 100.632 22.408C100.215 22.4062 100.11 22.3907 99.9189 22.3021C99.5932 22.1511 99.297 21.7958 99.1874 21.4246C99.1051 21.146 99.1014 21.0179 99.1014 18.4702V15.8069H100.398H101.695V14.6508V13.4947H100.398H99.1014V11.9829V10.4711H97.9574H96.8133L96.7989 11.5716ZM125.736 13.2789C123.841 13.4979 122.252 14.6083 121.426 16.2896C120.782 17.601 120.618 19.2149 120.977 20.7129C121.481 22.8195 123.012 24.3644 125.077 24.8502C126.192 25.1125 127.54 25.0363 128.592 24.6513C129.436 24.3428 130.132 23.8682 130.752 23.1781C131.774 22.0424 132.268 20.5774 132.205 18.875C132.16 17.6622 131.875 16.6953 131.283 15.7402C130.982 15.2552 130.219 14.4775 129.741 14.1683C128.596 13.4281 127.175 13.1125 125.736 13.2789ZM90.0886 19.1196V24.7444H91.4278H92.767V19.1196V13.4947H91.4278H90.0886V19.1196ZM103.706 17.0186C103.719 19.3296 103.742 20.6419 103.773 20.8315C103.958 21.9498 104.301 22.7288 104.864 23.306C105.434 23.8914 106.134 24.1936 107.169 24.301C108.507 24.4401 109.512 23.957 110.154 22.8652C110.312 22.596 110.372 22.5258 110.393 22.5827C110.408 22.6243 110.411 23.1328 110.399 23.7125C110.375 24.8389 110.343 25.055 110.128 25.5298C109.96 25.9018 109.566 26.3151 109.204 26.5006C108.746 26.7344 108.432 26.8024 107.817 26.8001C106.766 26.7962 105.958 26.4883 105.329 25.8523L105.158 25.6795L104.317 26.5591L103.477 27.4386L103.787 27.7511C104.537 28.5073 105.439 28.9365 106.732 29.1518C107.252 29.2383 108.596 29.225 109.113 29.1282C111.35 28.7097 112.756 27.2775 113.043 25.1253C113.073 24.8961 113.088 22.9125 113.088 19.1386V13.4947H111.749H110.41L110.409 16.485C110.409 18.2303 110.391 19.6049 110.366 19.7866C110.202 20.9881 109.593 21.7255 108.648 21.868C107.779 21.999 107.042 21.6373 106.703 20.9137C106.401 20.2689 106.372 19.8738 106.371 16.4183L106.371 13.4947H105.029H103.687L103.706 17.0186ZM127.44 15.8238C128.194 16.0775 128.811 16.667 129.156 17.4616C129.493 18.2397 129.567 19.3131 129.347 20.2258C129.311 20.3755 129.192 20.6881 129.084 20.9204C128.922 21.2652 128.822 21.4093 128.541 21.7043C127.984 22.289 127.337 22.5632 126.509 22.5649C125.103 22.5678 124.044 21.6779 123.642 20.1557C123.585 19.9402 123.568 19.7011 123.568 19.1196C123.568 18.4632 123.581 18.3169 123.666 18.008C123.951 16.9702 124.595 16.1949 125.438 15.8736C125.881 15.7051 126.069 15.676 126.607 15.6929C126.988 15.7048 127.172 15.7337 127.44 15.8238ZM50.7641 32.2369L49.0001 34.0823L51.6569 36.8613L54.3137 39.6403L51.6569 42.4194L49.0001 45.1984L50.7428 47.0215C51.7013 48.0243 52.5047 48.8446 52.5283 48.8446C52.5519 48.8446 53.7571 47.6041 55.2067 46.0878L57.8422 43.3309L60.4783 46.0878C61.9281 47.6041 63.1335 48.8446 63.157 48.8446C63.1804 48.8446 63.9837 48.0243 64.9422 47.0215L66.6849 45.1984L64.0281 42.4194L61.3713 39.6403L64.0281 36.8613L66.6849 34.0823L64.9209 32.2369L63.1569 30.3915L60.5209 33.1483C59.071 34.6647 57.8658 35.9052 57.8425 35.9052C57.8192 35.9052 56.614 34.6647 55.1641 33.1483L52.5281 30.3915L50.7641 32.2369ZM155.219 33.9932C155.219 35.8763 155.204 37.4166 155.187 37.4161C155.169 37.4156 155.078 37.3031 154.985 37.1661C154.744 36.814 154.235 36.3303 153.87 36.1064C152.67 35.3717 150.906 35.3682 149.463 36.0975C147.955 36.8593 146.985 38.2437 146.622 40.1506C146.499 40.7927 146.488 42.0676 146.6 42.6962C147.029 45.1102 148.549 46.7715 150.747 47.2302C151.009 47.285 151.313 47.3065 151.796 47.3046C152.385 47.3024 152.531 47.2868 152.881 47.1893C153.664 46.9708 154.236 46.6245 154.76 46.0511C154.936 45.8581 155.132 45.6074 155.196 45.4938C155.26 45.3803 155.329 45.2986 155.35 45.3123C155.371 45.3259 155.389 45.7261 155.389 46.2016V47.066H156.643H157.897V38.8177V30.5694H156.558H155.219V33.9932ZM77.7809 39.4513C76.2679 43.4071 74.9939 46.7389 74.9499 46.8554L74.8698 47.0672L76.3206 47.0555L77.7714 47.0438L78.3562 45.4208L78.941 43.7978H82.0975H85.254L85.6956 45.0206C85.9385 45.6932 86.2052 46.4285 86.2882 46.6547L86.4391 47.066H87.9408H89.4425L86.6112 39.6626L83.7798 32.2591H82.1558H80.5317L77.7809 39.4513ZM120.082 32.8038C120.071 32.8344 120.058 33.3596 120.051 33.971C120.04 35.0194 120.034 35.0931 119.945 35.266C119.72 35.7062 119.431 35.8163 118.501 35.8163H117.85V36.9715V38.1268L118.774 38.1387L119.699 38.1507L119.724 41.1077C119.751 44.2579 119.749 44.2294 119.971 44.898C120.259 45.765 120.753 46.3661 121.475 46.7282C121.914 46.9484 122.232 47.0392 122.824 47.1141C123.256 47.1689 123.992 47.1415 124.503 47.0516L124.801 46.9993L124.812 45.8316L124.823 44.664L124.578 44.6978C124.443 44.7164 124.13 44.7315 123.882 44.7313C123.45 44.731 123.418 44.7242 123.139 44.5757C122.798 44.3935 122.577 44.122 122.456 43.7357C122.383 43.505 122.377 43.2896 122.377 40.8187V38.1507L123.685 38.139L124.992 38.1272V36.9718V35.8163H123.674H122.356V34.2823V32.7482H121.228C120.364 32.7482 120.096 32.7612 120.082 32.8038ZM83.2472 38.2001C83.8651 39.9024 84.377 41.3131 84.3848 41.3349C84.393 41.3577 83.4256 41.3745 82.0997 41.3745C80.8351 41.3745 79.8005 41.361 79.8005 41.3445C79.8005 41.3281 80.2908 39.9625 80.8901 38.3098C81.4894 36.6572 81.9959 35.2599 82.0157 35.2049C82.0354 35.1499 82.0678 35.1049 82.0877 35.1049C82.1075 35.1049 82.6293 36.4977 83.2472 38.2001ZM95.9876 35.5923C95.1187 35.7589 94.3951 36.293 93.9524 37.0947C93.8816 37.2231 93.8058 37.3281 93.7842 37.3281C93.7615 37.3281 93.7448 37.0066 93.7448 36.5722V35.8163H92.4906H91.2365V41.4412V47.066H92.5757H93.9148L93.9152 43.8534C93.9154 41.9403 93.9332 40.4789 93.9593 40.2406C94.0795 39.1424 94.438 38.4848 95.0935 38.16C95.3682 38.0239 95.405 38.0174 95.8917 38.018C96.3294 38.0185 96.4378 38.0337 96.6556 38.1249C97.1184 38.3186 97.4764 38.8 97.634 39.4402C97.7577 39.9427 97.7828 40.6891 97.7831 43.8756L97.7835 47.066H99.1212H100.459L100.472 43.4755C100.484 39.9993 100.487 39.875 100.572 39.5736C100.778 38.8435 101.09 38.4097 101.584 38.1686C101.833 38.0466 101.938 38.0224 102.291 38.0045C103.452 37.9461 104.089 38.6146 104.242 40.0518C104.271 40.3205 104.288 41.7156 104.288 43.7739V47.066H105.63H106.971L106.954 43.1642C106.935 38.9963 106.937 39.0536 106.714 38.1918C106.664 37.998 106.534 37.6494 106.425 37.4171C106.258 37.062 106.165 36.9301 105.841 36.5896C105.524 36.256 105.392 36.1523 105.095 36.0028C104.034 35.4684 102.567 35.4022 101.456 35.8385C100.808 36.0929 100.154 36.6362 99.8041 37.211L99.6452 37.4718L99.5457 37.2887C99.1168 36.4987 98.4217 35.9338 97.5709 35.6836C97.2121 35.5781 96.3279 35.5272 95.9876 35.5923ZM112.387 35.5973C111.695 35.6969 110.924 35.9829 110.466 36.3097C109.895 36.7177 109.447 37.3199 109.242 37.955C109.141 38.2647 109.118 38.425 109.101 38.8924C109.078 39.5787 109.15 39.9745 109.39 40.4757C109.826 41.3839 110.581 41.9012 112.259 42.4417C113.369 42.7992 113.681 42.9371 113.914 43.1746C114.285 43.5511 114.291 44.1243 113.929 44.5539C113.417 45.1623 112.117 45.2463 111.181 44.7317C110.868 44.5599 110.351 44.1347 110.307 44.0123C110.285 43.9522 110.117 44.105 109.515 44.7336C109.095 45.1722 108.752 45.5583 108.752 45.5916C108.752 45.6249 108.92 45.8252 109.126 46.0367C109.866 46.7976 110.722 47.1745 111.993 47.2981C112.658 47.3627 113.412 47.3025 114.045 47.1343C114.57 46.9945 115.309 46.6207 115.67 46.312C116.172 45.8824 116.558 45.2654 116.728 44.6188C116.833 44.2193 116.833 43.2871 116.728 42.8871C116.572 42.2953 116.248 41.7638 115.83 41.4139C115.283 40.9569 114.787 40.7158 113.612 40.3364C112.367 39.9343 112.11 39.8082 111.872 39.4824C111.705 39.2536 111.673 38.7702 111.807 38.4961C111.92 38.2652 112.194 38.0203 112.445 37.926C112.745 37.8131 113.47 37.7903 113.811 37.8831C114.236 37.9987 114.711 38.2794 115.032 38.6037L115.315 38.8891L116.07 38.1007C116.936 37.1958 116.901 37.3132 116.451 36.8228C115.897 36.2194 115.22 35.8498 114.32 35.6595C113.927 35.5764 112.787 35.5397 112.387 35.5973ZM130.965 35.6001C130.037 35.7227 129.104 36.1164 128.393 36.6851C128.056 36.9549 127.51 37.566 127.275 37.9368C126.652 38.9179 126.347 40.0708 126.348 41.4412C126.348 42.9316 126.696 44.0944 127.457 45.1435C128.233 46.2144 129.298 46.8912 130.705 47.2082C131.309 47.3441 132.567 47.3442 133.282 47.2084C134.543 46.9688 135.557 46.436 136.296 45.6247L136.568 45.3261L136.381 45.1252C136.278 45.0147 135.912 44.6437 135.567 44.3008L134.941 43.6774L134.636 43.9731C134.279 44.3183 133.671 44.6551 133.133 44.8057C132.672 44.9347 131.615 44.9488 131.199 44.8316C130.071 44.5139 129.247 43.6266 129.051 42.5195L129.021 42.3527H133.061H137.101L137.136 42.0081C137.185 41.5322 137.164 40.7331 137.089 40.2464C136.824 38.5255 135.938 37.1213 134.603 36.3076C133.612 35.704 132.223 35.4338 130.965 35.6001ZM163.976 35.576C162.81 35.7207 161.873 36.0792 161.128 36.6667C160.792 36.9312 160.389 37.3505 160.413 37.4109C160.42 37.4304 160.78 37.8073 161.213 38.2487L161.999 39.0512L162.267 38.7941C162.587 38.4858 163.087 38.2042 163.539 38.0771C163.788 38.0072 164.002 37.9836 164.401 37.9819C165.932 37.9752 166.69 38.6866 166.696 40.1348L166.697 40.3402L165.305 40.3716C163.823 40.405 163.274 40.4602 162.623 40.6415C161.277 41.0161 160.35 41.8937 160.079 43.0503C159.975 43.4925 159.986 44.3173 160.101 44.7666C160.367 45.8026 161.081 46.6051 162.106 47.0185C163.069 47.407 164.311 47.4252 165.263 47.0647C165.844 46.8447 166.433 46.41 166.764 45.9563C166.854 45.833 166.938 45.7324 166.95 45.7328C166.963 45.7332 167.019 45.8433 167.074 45.9773C167.269 46.4476 167.619 46.7613 168.155 46.9444C168.375 47.0197 168.566 47.0382 169.301 47.0555L170.183 47.0761V45.9879V44.8997L169.96 44.8754C169.837 44.8622 169.683 44.8254 169.617 44.7939C169.374 44.6777 169.376 44.699 169.375 42.1882C169.375 40.9214 169.356 39.6648 169.333 39.3958C169.162 37.3911 167.956 36.0833 165.886 35.6606C165.542 35.5902 164.304 35.5354 163.976 35.576ZM177.033 35.5965C176.193 35.7539 175.442 36.3016 175.027 37.058C174.947 37.2051 174.867 37.3261 174.849 37.3268C174.831 37.3276 174.817 36.988 174.817 36.5722V35.8163H173.563H172.309V41.4412V47.066H173.646H174.983L174.997 43.4977C175.011 39.9379 175.012 39.9286 175.108 39.5996C175.262 39.0695 175.407 38.7943 175.686 38.5025C176.06 38.1098 176.3 38.0189 176.964 38.018C177.448 38.0174 177.488 38.0245 177.751 38.1555C178.243 38.4018 178.538 38.8235 178.711 39.5292C178.78 39.8133 178.788 40.1547 178.802 43.4532L178.817 47.066H180.152H181.487L181.502 43.5199C181.516 40.0443 181.518 39.967 181.608 39.6316C181.75 39.1011 181.904 38.8023 182.19 38.5025C182.565 38.1096 182.805 38.0188 183.469 38.0183C183.941 38.0179 183.998 38.0274 184.243 38.1454C184.712 38.3714 185.046 38.8392 185.22 39.5148C185.285 39.7667 185.294 40.174 185.307 43.431L185.321 47.066H186.661H188L187.985 43.0753C187.97 39.1378 187.969 39.0787 187.875 38.6482C187.667 37.6855 187.366 37.0618 186.86 36.539C186.19 35.8473 185.116 35.4995 183.851 35.5649C182.523 35.6336 181.506 36.1959 180.848 37.2261L180.7 37.4575L180.49 37.1207C180.177 36.6181 179.697 36.1675 179.223 35.9299C179.009 35.8231 178.71 35.703 178.558 35.6632C178.224 35.5757 177.348 35.5373 177.033 35.5965ZM144.186 35.79C143.271 35.9775 142.601 36.5141 142.169 37.4059C142.095 37.5588 142.016 37.6839 141.994 37.6839C141.971 37.6839 141.955 37.3003 141.955 36.7501V35.8163H140.7H139.446V41.4412V47.066H140.784H142.121L142.135 43.7645C142.149 40.0986 142.137 40.2705 142.443 39.615C142.618 39.2395 142.847 38.9568 143.153 38.7368C143.704 38.3416 144.406 38.2638 145.579 38.4682L145.739 38.4961L145.728 37.1705L145.717 35.8449L145.589 35.8083C145.343 35.7376 144.497 35.7265 144.186 35.79ZM132.491 37.9049C133.508 38.1771 134.276 39.0457 134.45 40.1208L134.48 40.3073H131.751H129.023L129.052 40.1183C129.203 39.1526 129.822 38.3488 130.677 38.0118C131.068 37.8574 131.233 37.8278 131.734 37.8221C132.035 37.8187 132.261 37.8434 132.491 37.9049ZM153.045 38.1549C153.397 38.248 153.932 38.5389 154.191 38.7773C154.996 39.5196 155.376 40.8646 155.155 42.1905C154.939 43.4823 154.174 44.4068 153.066 44.7143C152.604 44.8423 151.882 44.8426 151.422 44.7149C150.625 44.4937 149.991 43.9553 149.634 43.1956C149.334 42.5558 149.289 42.327 149.288 41.4412C149.288 40.5558 149.333 40.3292 149.634 39.6867C150.044 38.8148 150.84 38.2213 151.782 38.085C152.115 38.0367 152.726 38.0705 153.045 38.1549ZM166.672 42.7307C166.667 43.3099 166.613 43.6014 166.44 43.9803C165.859 45.2541 163.965 45.72 163.089 44.8045C162.811 44.5132 162.722 44.2643 162.722 43.7756C162.722 43.4235 162.738 43.3221 162.818 43.1667C163.01 42.7906 163.424 42.4934 163.955 42.352C164.22 42.2813 165.104 42.2316 165.996 42.2372L166.676 42.2415L166.672 42.7307ZM50.7641 54.4695L49.0001 56.3149L51.6569 59.0939L54.3137 61.873L51.6568 64.6521L49 67.4312L50.7535 69.2652L52.5071 71.0993L55.1641 68.3205L57.8212 65.5416L60.4783 68.3204L63.1353 71.0992L64.8997 69.2542L66.664 67.4092L64.0282 64.6521C62.5785 63.1357 61.3923 61.8751 61.3923 61.8507C61.3923 61.8264 62.5785 60.5658 64.0282 59.0494L66.664 56.2923L64.9102 54.4583L63.1563 52.6242L60.5208 55.3811C59.0713 56.8973 57.8661 58.1379 57.8428 58.1379C57.8194 58.1379 56.614 56.8973 55.1641 55.381L52.5281 52.6241L50.7641 54.4695Z" fill="#C7DBF2"/>
</svg>
