<svg width="236" height="80" viewBox="0 0 236 80" fill="none" xmlns="http://www.w3.org/2000/svg">
<path d="M89 69H147V11H89V69Z" fill="#C7DBF2"/>
<path d="M104.445 28.5302C104.445 28.5302 105.858 28.5885 106.822 28.5927C108.009 28.601 109.031 28.3324 109.056 28.4886C109.106 28.7759 109.137 41.495 109.137 41.495C109.137 41.495 109.276 44.2104 109.941 45.591C111.107 48.019 116.308 48.2189 116.308 48.2189C116.308 48.2189 117.115 48.3147 118.922 48.1752C120.726 48.0336 124.248 47.513 125.389 45.3744C125.389 45.3744 126.198 44.4665 126.491 39.3252C126.796 33.9402 126.077 28.6052 126.077 28.6052L131.116 28.374C131.116 28.374 130.776 32.1806 130.767 39.3273C130.761 46.4739 131.42 50.6678 131.42 50.6678L126.426 52.1379L126.432 46.8487L124.057 49.0852C124.057 49.0852 122.671 50.5116 119.536 51.3196C116.4 52.1254 114.02 51.9797 112.597 51.6902C111.169 51.4029 109.887 51.0218 109.079 50.6386C108.27 50.2576 106.845 49.5433 105.565 47.538C104.806 46.3531 104.806 43.3941 104.806 43.3941L104.865 37.8675L104.445 28.5302Z" fill="#071830"/>
<path d="M122.347 26.793L111.203 15.6024L113.626 13.1806L124.77 24.3712L122.347 26.793Z" fill="#071830"/>
<path d="M113.335 26.8269L110.918 24.3989L122.088 13.2291L124.504 15.6571L113.335 26.8269Z" fill="#071830"/>
<path d="M122.369 43.7188L111.222 32.5261L113.645 30.1043L124.792 41.297L122.369 43.7188Z" fill="#071830"/>
<path d="M113.348 43.7454L110.931 41.3173L122.1 30.1517L124.517 32.5797L113.348 43.7454Z" fill="#071830"/>
<path d="M122.345 66.2957L111.203 55.103L113.626 52.6812L124.768 63.8739L122.345 66.2957Z" fill="#071830"/>
<path d="M113.322 66.3289L110.905 63.9008L122.073 52.7331L124.491 55.1612L113.322 66.3289Z" fill="#071830"/>
<path d="M95.1884 17.6361C95.1884 17.2978 95.1926 17.1634 95.1978 17.3374C95.203 17.5115 95.203 17.7884 95.1978 17.9526C95.1926 18.1169 95.1883 17.9745 95.1884 17.6361H95.1884Z" fill="#071830"/>
<path d="M89.0647 40.0248V11.1077H117.982H146.899V40.0248V68.942H117.982H89.0647V40.0248ZM119.974 64.1139C121.134 65.3111 122.169 66.2905 122.274 66.2905C122.379 66.2905 123.003 65.7485 123.661 65.086L124.857 63.8815L122.621 61.6497L120.385 59.418L122.496 57.3023L124.607 55.1866L123.325 53.9048L122.043 52.6229L119.971 54.69L117.899 56.7571L115.784 54.6471L113.67 52.5372L112.388 53.8192L111.106 55.1012L113.216 57.2159L115.326 59.3307L113.05 61.6109L110.774 63.8911L112.056 65.1733L113.338 66.4554L115.602 64.1964L117.865 61.9374L119.974 64.1139ZM129.002 51.484L131.405 50.7706L131.395 50.2034C131.39 49.8915 131.284 48.5177 131.16 47.1505C130.904 44.3313 130.834 34.5716 131.042 30.7862L131.176 28.342L130.213 28.3428C129.684 28.3432 128.514 28.3924 127.614 28.452L125.978 28.5603L126.079 29.4868C126.73 35.4409 126.445 42.6131 125.465 44.9595C124.656 46.8956 121.659 48.0715 117.486 48.0901C115.096 48.1007 113.248 47.765 111.81 47.0587C109.869 46.1058 109.485 45.1146 109.276 40.5219C109.197 38.7902 109.129 35.3514 109.124 32.8802L109.116 28.3871L106.755 28.4684C105.456 28.5132 104.386 28.5589 104.376 28.5701C104.367 28.5813 104.456 30.6039 104.574 33.0648C104.692 35.5256 104.794 39.2915 104.801 41.4334C104.817 46.8039 105.018 47.5069 107.075 49.3866C108.151 50.3696 109.265 50.9129 111.39 51.4908C113.646 52.1042 116.347 52.1045 119.015 51.4916C121.565 50.9059 123.201 50.0398 124.983 48.332L126.35 47.0219V49.6133C126.35 51.0386 126.406 52.2031 126.475 52.2011C126.543 52.1991 127.68 51.8764 129.002 51.484V51.484L129.002 51.484ZM115.701 41.56L117.899 39.3666L120.137 41.5996L122.374 43.8326L123.656 42.5506L124.938 41.2686L122.705 39.0311L120.472 36.7936L122.5 34.7611C123.615 33.6432 124.528 32.657 124.528 32.5694C124.528 32.3558 122.344 30.1648 122.132 30.1648C122.039 30.1648 121.049 31.0772 119.931 32.1924L117.899 34.2199L115.784 32.11L113.67 30.0001L112.388 31.282L111.106 32.564L113.216 34.6787L115.326 36.7935L113.132 38.9914C111.926 40.2002 110.939 41.261 110.939 41.3486C110.939 41.5624 113.122 43.7534 113.335 43.7534C113.428 43.7534 114.492 42.7663 115.701 41.56ZM115.701 24.6571L117.899 22.4637L120.137 24.6967L122.374 26.9297L123.656 25.6478L124.938 24.3658L122.705 22.1282L120.472 19.8907L122.5 17.8582C123.615 16.7404 124.528 15.754 124.528 15.6663C124.528 15.5786 123.988 14.9641 123.329 14.3006L122.131 13.0944L120.015 15.2058L117.899 17.3172L115.744 15.1671L113.589 13.0171L112.307 14.299L111.026 15.5809L113.176 17.7358L115.326 19.8907L113.05 22.171L110.774 24.4512L111.974 25.6509C112.633 26.3107 113.247 26.8505 113.338 26.8505C113.429 26.8505 114.492 25.8635 115.701 24.6571ZM95.1305 17.4497C95.0755 17.3946 95.0363 17.4925 95.0435 17.6672C95.0515 17.8602 95.0907 17.8995 95.1436 17.7673C95.1915 17.6477 95.1856 17.5048 95.1305 17.4497H95.1305Z" fill="#C7DBF2"/>
</svg>
