<svg width="236" height="80" viewBox="0 0 236 80" fill="none" xmlns="http://www.w3.org/2000/svg">
<path d="M82.3103 47.3411H77.2658V32.6338L72.3291 41.6274H68.9301L63.9665 32.6338V47.3411H58.922V22.053H63.8856L70.6296 35.1732L77.3467 22.053H82.3103V47.3411Z" fill="#C7DBF2"/>
<path d="M108.263 47.3411H102.975L101.465 42.8707H92.3197L90.7551 47.3411H85.4678L94.9094 22.053H98.8479L108.263 47.3411ZM93.6955 38.7177H100.035L96.8787 29.5389L93.6955 38.7177Z" fill="#C7DBF2"/>
<path d="M125.608 26.444H118.864V47.3411H113.819V26.444H107.075V22.053H125.608V26.444Z" fill="#C7DBF2"/>
<path d="M139.793 22.053C145.08 22.053 148.156 25.5711 148.156 29.8034C148.156 33.348 145.944 35.5964 143.435 36.4428L149.208 47.3411H143.381L138.336 37.2364H134.722V47.3411H129.677V22.053H139.793ZM134.722 26.444V33.0834H139.496C141.708 33.0834 143.111 31.7344 143.111 29.7505C143.111 27.7931 141.708 26.444 139.496 26.444H134.722Z" fill="#C7DBF2"/>
<path d="M158.439 47.3411H153.394V22.053H158.439V47.3411Z" fill="#C7DBF2"/>
<path d="M38.2585 47.2881H32.5125L40.0119 34.9615L32 22H37.7459L45.4611 34.9615L38.2585 47.2881ZM48.5094 47.2881H42.7635L50.2628 34.9615L42.2509 22H47.9968L55.712 34.9615L48.5094 47.2881Z" fill="#C7DBF2"/>
<path d="M180.283 34.9615L187.998 22H193.744L185.759 34.9615L193.231 47.2881H187.485L180.283 34.9615Z" fill="#C7DBF2"/>
<path d="M190.535 34.9615L198.251 22H203.996L195.985 34.9615L203.484 47.2881H197.738L190.535 34.9615Z" fill="#C7DBF2"/>
<path d="M170.063 34.9615L177.779 22H183.525L175.513 34.9615L183.012 47.2881H177.266L170.063 34.9615Z" fill="#C7DBF2"/>
<path d="M175.509 34.9615L167.821 22H162.048L170.06 34.9615L162.561 47.2881H168.306L175.509 34.9615Z" fill="#C7DBF2"/>
<path d="M203.756 50.9387H96.6876L96.8765 51.1768L99.682 54.8536L96.8765 58.5569L96.5527 58.9801H203.756V50.9387Z" fill="#C7DBF2"/>
<path d="M110.363 54.8534L108.044 51.1765L107.882 50.9385H32.5913V58.9799H107.72L108.044 58.5566L110.363 54.8534Z" fill="#C7DBF2"/>
<path d="M35.1272 56.5718H34.3988V52.9214H35.1272V56.5718Z" fill="#071830"/>
<path d="M39.2538 56.5718H38.6063L37.1226 54.3498V56.5718H36.3943V52.9214H37.0417L38.4984 55.1434V52.9214H39.2268L39.2538 56.5718Z" fill="#071830"/>
<path d="M43.406 56.5718H42.7586L41.2749 54.3498V56.5718H40.5465V52.9214H41.1939L42.6506 55.1434V52.9214H43.379L43.406 56.5718Z" fill="#071830"/>
<path d="M45.94 52.9214C46.1558 52.9214 46.3446 52.9478 46.5065 53.0272C46.6683 53.1066 46.8032 53.1859 46.9381 53.3182C47.019 53.3975 47.1 53.5033 47.1539 53.6091C47.2079 53.7149 47.2348 53.8208 47.2618 53.9266C47.2888 54.0324 47.2888 54.1646 47.3158 54.3233C47.3158 54.4556 47.3158 54.6143 47.3158 54.7995C47.3158 54.9846 47.3158 55.1434 47.3158 55.2756C47.3158 55.4079 47.2888 55.5401 47.2618 55.6724C47.2348 55.7782 47.2079 55.9105 47.1539 55.9898C47.1 56.0956 47.019 56.175 46.9381 56.2808C46.8032 56.413 46.6683 56.4924 46.5065 56.5718C46.3446 56.6511 46.1558 56.6776 45.94 56.6776C45.7242 56.6776 45.5353 56.6511 45.3735 56.5718C45.2116 56.4924 45.0768 56.413 44.9419 56.2808C44.8609 56.2014 44.78 56.0956 44.7261 55.9898C44.6721 55.884 44.6451 55.7782 44.6182 55.6724C44.5912 55.5666 44.5912 55.4343 44.5642 55.2756C44.5642 55.1434 44.5642 54.9846 44.5642 54.7995C44.5642 54.6143 44.5642 54.4821 44.5642 54.3233C44.5642 54.1911 44.5912 54.0588 44.6182 53.9266C44.6451 53.8208 44.6721 53.6885 44.7261 53.6091C44.78 53.5298 44.8609 53.424 44.9419 53.3182C45.0768 53.1859 45.2116 53.1066 45.3735 53.0272C45.5353 52.9478 45.7242 52.9214 45.94 52.9214ZM45.94 53.5298C45.8321 53.5298 45.7512 53.5562 45.6702 53.5827C45.5893 53.6091 45.5353 53.662 45.4814 53.7149C45.4544 53.7414 45.4274 53.7943 45.4005 53.8472C45.3735 53.9001 45.3465 53.953 45.3465 54.0324C45.3195 54.1117 45.3195 54.1911 45.3195 54.3233C45.3195 54.4291 45.3195 54.5879 45.3195 54.7466C45.3195 54.9317 45.3195 55.064 45.3195 55.1698C45.3195 55.2756 45.3465 55.3814 45.3465 55.4608C45.3735 55.5401 45.3735 55.593 45.4005 55.6459C45.4274 55.6988 45.4544 55.7253 45.4814 55.7782C45.5353 55.8311 45.5893 55.884 45.6702 55.9105C45.7512 55.9369 45.8321 55.9634 45.94 55.9634C46.0479 55.9634 46.1288 55.9369 46.2098 55.9105C46.2907 55.884 46.3446 55.8311 46.3986 55.7782C46.4256 55.7517 46.4525 55.6988 46.4795 55.6459C46.5065 55.593 46.5335 55.5401 46.5335 55.4608C46.5604 55.3814 46.5604 55.3021 46.5604 55.1698C46.5604 55.0375 46.5604 54.9053 46.5604 54.7466C46.5604 54.5614 46.5604 54.4291 46.5604 54.3233C46.5604 54.2175 46.5335 54.1117 46.5335 54.0324C46.5065 53.953 46.5065 53.9001 46.4795 53.8472C46.4525 53.7943 46.4256 53.7678 46.3986 53.7149C46.3446 53.662 46.2907 53.6091 46.2098 53.5827C46.1288 53.5562 46.0479 53.5298 45.94 53.5298Z" fill="#071830"/>
<path d="M49.7711 56.5722H49.2316L48.0177 52.9482H48.773L49.5284 55.3025L50.2567 52.9482H51.012L49.7711 56.5722Z" fill="#071830"/>
<path d="M54.5472 56.5718H53.7919L53.5761 55.9369H52.2542L52.0384 56.5718H51.2561L52.6049 52.9214H53.1714L54.5472 56.5718ZM52.4431 55.3285H53.3602L52.9016 54.0059L52.4431 55.3285Z" fill="#071830"/>
<path d="M57.4608 53.5831H56.4897V56.5986H55.7613V53.5831H54.7902V52.9482H57.4608V53.5831Z" fill="#071830"/>
<path d="M59.2138 56.5718H58.4855V52.9214H59.2138V56.5718Z" fill="#071830"/>
<path d="M61.7559 52.9214C61.9717 52.9214 62.1606 52.9478 62.3224 53.0272C62.4843 53.1066 62.6191 53.1859 62.754 53.3182C62.835 53.3975 62.9159 53.5033 62.9698 53.6091C63.0238 53.7149 63.0508 53.8208 63.0777 53.9266C63.1047 54.0324 63.1047 54.1646 63.1317 54.3233C63.1317 54.4556 63.1317 54.6143 63.1317 54.7995C63.1317 54.9846 63.1317 55.1434 63.1317 55.2756C63.1317 55.4079 63.1047 55.5401 63.0777 55.6724C63.0508 55.7782 63.0238 55.9105 62.9698 55.9898C62.9159 56.0956 62.835 56.175 62.754 56.2808C62.6191 56.413 62.4843 56.4924 62.3224 56.5718C62.1606 56.6511 61.9717 56.6776 61.7559 56.6776C61.5401 56.6776 61.3513 56.6511 61.1894 56.5718C61.0276 56.4924 60.8927 56.413 60.7578 56.2808C60.6769 56.2014 60.5959 56.0956 60.542 55.9898C60.488 55.884 60.4611 55.7782 60.4341 55.6724C60.4071 55.5666 60.4071 55.4343 60.3801 55.2756C60.3801 55.1434 60.3801 54.9846 60.3801 54.7995C60.3801 54.6143 60.3801 54.4821 60.3801 54.3233C60.3801 54.1911 60.4071 54.0588 60.4341 53.9266C60.4611 53.8208 60.488 53.6885 60.542 53.6091C60.5959 53.5033 60.6769 53.424 60.7578 53.3182C60.8927 53.1859 61.0276 53.1066 61.1894 53.0272C61.3513 52.9478 61.5401 52.9214 61.7559 52.9214ZM61.7559 53.5562C61.648 53.5562 61.5671 53.5827 61.4861 53.6091C61.4052 53.6356 61.3513 53.6885 61.2973 53.7414C61.2703 53.7679 61.2434 53.8208 61.2164 53.8737C61.1894 53.9266 61.1624 53.9795 61.1624 54.0588C61.1355 54.1382 61.1355 54.2175 61.1355 54.3498C61.1355 54.4556 61.1355 54.6143 61.1355 54.773C61.1355 54.9582 61.1355 55.0904 61.1355 55.1963C61.1355 55.3021 61.1624 55.4079 61.1624 55.4872C61.1894 55.5666 61.1894 55.6195 61.2164 55.6724C61.2434 55.7253 61.2703 55.7517 61.2973 55.8047C61.3513 55.8576 61.4052 55.9105 61.4861 55.9369C61.5671 55.9634 61.648 55.9898 61.7559 55.9898C61.8638 55.9898 61.9447 55.9634 62.0257 55.9369C62.1066 55.9105 62.1606 55.8576 62.2145 55.8047C62.2415 55.7782 62.2685 55.7253 62.2954 55.6724C62.3224 55.6195 62.3494 55.5666 62.3494 55.4872C62.3764 55.4079 62.3764 55.3285 62.3764 55.1963C62.3764 55.0904 62.3764 54.9317 62.3764 54.773C62.3764 54.5879 62.3764 54.4556 62.3764 54.3498C62.3764 54.244 62.3494 54.1382 62.3494 54.0588C62.3224 53.9795 62.3224 53.9266 62.2954 53.8737C62.2685 53.8208 62.2415 53.7943 62.2145 53.7414C62.1606 53.6885 62.1066 53.6356 62.0257 53.6091C61.9447 53.5827 61.8638 53.5562 61.7559 53.5562Z" fill="#071830"/>
<path d="M67.1231 56.5718H66.4757L64.992 54.3498V56.5718H64.2637V52.9214H64.9111L66.3678 55.1434V52.9214H67.0962L67.1231 56.5718Z" fill="#071830"/>
<path d="M71.3033 52.9214C71.654 52.9214 71.9507 53.0272 72.1935 53.2124C72.4363 53.3975 72.5981 53.6885 72.6521 54.0853H71.9237C71.8967 53.9266 71.8158 53.8208 71.7079 53.7149C71.6 53.6091 71.4651 53.5562 71.2763 53.5562C71.1684 53.5562 71.0875 53.5827 71.0065 53.6091C70.9256 53.6356 70.8717 53.6885 70.8177 53.7414C70.7907 53.7679 70.7638 53.8208 70.7368 53.8737C70.7098 53.9266 70.6828 53.9795 70.6828 54.0588C70.6558 54.1382 70.6558 54.2175 70.6558 54.3498C70.6558 54.4821 70.6558 54.6143 70.6558 54.773C70.6558 54.9582 70.6558 55.0904 70.6558 55.1963C70.6558 55.3021 70.6828 55.4079 70.6828 55.4872C70.7098 55.5666 70.7098 55.6195 70.7368 55.6724C70.7638 55.7253 70.7907 55.7517 70.8177 55.8047C70.8717 55.8576 70.9256 55.9105 71.0065 55.9369C71.0875 55.9634 71.1684 55.9898 71.2763 55.9898C71.4651 55.9898 71.6 55.9369 71.7079 55.8311C71.8158 55.7253 71.8698 55.6195 71.9237 55.4608H72.6521C72.5981 55.8311 72.4363 56.1221 72.1935 56.3337C71.9507 56.5189 71.654 56.6247 71.3033 56.6247C71.0875 56.6247 70.8986 56.5982 70.7368 56.5189C70.5749 56.4395 70.44 56.3601 70.3052 56.2279C70.2242 56.1485 70.1433 56.0427 70.0893 55.9369C70.0354 55.8311 70.0084 55.7253 69.9814 55.6195C69.9545 55.5137 69.9545 55.3814 69.9275 55.2227C69.9275 55.0904 69.9275 54.9317 69.9275 54.7466C69.9275 54.5614 69.9275 54.4292 69.9275 54.2704C69.9275 54.1382 69.9545 54.0059 69.9814 53.8737C70.0084 53.7679 70.0354 53.6356 70.0893 53.5562C70.1433 53.4504 70.2242 53.3711 70.3052 53.2653C70.44 53.133 70.5749 53.0536 70.7368 52.9743C70.8986 52.9478 71.0875 52.9214 71.3033 52.9214Z" fill="#071830"/>
<path d="M76.1583 53.5827H74.4318V54.4291H75.8886V55.064H74.4318V55.9369H76.1583V56.5718H73.7035V52.9214H76.1583V53.5827Z" fill="#071830"/>
<path d="M80.1507 56.5718H79.5033L78.0196 54.3498V56.5718H77.2913V52.9214H77.9387L79.3954 55.1434V52.9214H80.1238L80.1507 56.5718Z" fill="#071830"/>
<path d="M83.8185 53.5831H82.8473V56.5986H82.119V53.5831H81.1478V52.9482H83.8185V53.5831Z" fill="#071830"/>
<path d="M87.2711 53.5827H85.5446V54.4291H87.0014V55.064H85.5446V55.9369H87.2711V56.5718H84.8163V52.9214H87.2711V53.5827Z" fill="#071830"/>
<path d="M89.8608 52.9482C90.0496 52.9482 90.2115 52.9746 90.3733 53.0275C90.5352 53.0804 90.6431 53.1598 90.751 53.2656C90.8589 53.3714 90.9398 53.4772 90.9938 53.6095C91.0477 53.7417 91.0747 53.9004 91.0747 54.0327C91.0747 54.165 91.0477 54.2708 91.0207 54.3766C90.9938 54.4824 90.9398 54.5617 90.8589 54.6411C90.8049 54.7204 90.724 54.7998 90.6431 54.8527C90.5621 54.9056 90.4812 54.9585 90.3733 54.985L91.2096 56.5456H90.3733L89.645 55.0908H89.1324V56.5456H88.4041V52.8953L89.8608 52.9482ZM89.1324 53.583V54.5353H89.8068C89.9687 54.5353 90.1036 54.4824 90.1845 54.403C90.2654 54.3237 90.3194 54.1914 90.3194 54.0591C90.3194 53.9269 90.2654 53.7946 90.1845 53.7153C90.1036 53.6359 89.9687 53.583 89.8068 53.583H89.1324Z" fill="#071830"/>
<path d="M93.3677 52.9214C93.6375 52.9214 93.8533 52.9478 94.0421 53.0272C94.231 53.0801 94.4198 53.2124 94.5817 53.3446L94.1231 53.7943C94.0152 53.6885 93.9073 53.6356 93.7993 53.5827C93.6914 53.5562 93.5296 53.5298 93.3677 53.5298C93.1789 53.5298 93.017 53.5827 92.9361 53.662C92.8552 53.7414 92.8012 53.8737 92.8012 53.9795C92.8012 54.0853 92.8282 54.1646 92.9091 54.244C92.9361 54.2704 92.9901 54.2969 93.044 54.3233C93.098 54.3498 93.1519 54.3762 93.2328 54.3762L93.6645 54.4556C93.8263 54.4821 93.9882 54.5085 94.0961 54.5614C94.204 54.6143 94.3119 54.6672 94.3928 54.7466C94.5007 54.8259 94.5547 54.9582 94.6086 55.064C94.6626 55.1963 94.6896 55.3285 94.6896 55.5137C94.6896 55.6988 94.6626 55.8576 94.5817 55.9898C94.5007 56.1221 94.4198 56.2279 94.2849 56.3337C94.15 56.4395 94.0152 56.4924 93.8533 56.5453C93.6914 56.5982 93.5026 56.6247 93.3138 56.6247C93.044 56.6247 92.7743 56.5982 92.5584 56.5189C92.3426 56.4395 92.1268 56.3337 91.965 56.1485L92.4236 55.6988C92.5315 55.8047 92.6663 55.884 92.8282 55.9369C92.9901 55.9898 93.1519 56.0163 93.3138 56.0163C93.5296 56.0163 93.6914 55.9898 93.7993 55.9105C93.9073 55.8311 93.9612 55.7253 93.9612 55.5666C93.9612 55.4343 93.9342 55.3285 93.8533 55.2756C93.8263 55.2492 93.7724 55.2227 93.7184 55.1963C93.6645 55.1698 93.6105 55.1698 93.5026 55.1434L93.071 55.064C92.7473 55.0111 92.5045 54.9053 92.3426 54.773C92.1538 54.6143 92.0729 54.3762 92.0729 54.0588C92.0729 53.9001 92.0998 53.7414 92.1538 53.6091C92.2078 53.4769 92.2887 53.3711 92.3966 53.2653C92.5045 53.1595 92.6394 53.0801 92.8012 53.0272C92.9631 52.9478 93.1519 52.9214 93.3677 52.9214Z" fill="#071830"/>
<path d="M99.8418 53.5831H98.1153V54.4825H99.572V55.1173H98.1153V56.5986H97.387V52.9482H99.8418V53.5831Z" fill="#071830"/>
<path d="M102.028 52.9214C102.244 52.9214 102.433 52.9478 102.595 53.0272C102.756 53.1066 102.891 53.1859 103.026 53.3182C103.107 53.3975 103.188 53.5033 103.242 53.6091C103.296 53.7149 103.323 53.8208 103.35 53.9266C103.377 54.0324 103.377 54.1646 103.404 54.3233C103.404 54.4556 103.404 54.6143 103.404 54.7995C103.404 54.9846 103.404 55.1434 103.404 55.2756C103.404 55.4079 103.377 55.5401 103.35 55.6724C103.323 55.7782 103.296 55.9105 103.242 55.9898C103.188 56.0956 103.107 56.175 103.026 56.2808C102.891 56.413 102.756 56.4924 102.595 56.5718C102.433 56.6511 102.244 56.6776 102.028 56.6776C101.812 56.6776 101.623 56.6511 101.462 56.5718C101.3 56.4924 101.165 56.413 101.03 56.2808C100.949 56.2014 100.868 56.0956 100.814 55.9898C100.76 55.884 100.733 55.7782 100.706 55.6724C100.679 55.5666 100.679 55.4343 100.652 55.2756C100.652 55.1434 100.652 54.9846 100.652 54.7995C100.652 54.6143 100.652 54.4821 100.652 54.3233C100.652 54.1911 100.679 54.0588 100.706 53.9266C100.733 53.8208 100.76 53.6885 100.814 53.6091C100.868 53.5033 100.949 53.424 101.03 53.3182C101.165 53.1859 101.3 53.1066 101.462 53.0272C101.65 52.9478 101.812 52.9214 102.028 52.9214ZM102.028 53.5562C101.92 53.5562 101.839 53.5827 101.758 53.6091C101.677 53.6356 101.623 53.6885 101.57 53.7414C101.543 53.7679 101.516 53.8208 101.489 53.8737C101.462 53.9266 101.435 53.9795 101.435 54.0588C101.408 54.1382 101.408 54.2175 101.408 54.3498C101.408 54.4556 101.408 54.6143 101.408 54.773C101.408 54.9582 101.408 55.0904 101.408 55.1963C101.408 55.3021 101.435 55.4079 101.435 55.4872C101.462 55.5666 101.462 55.6195 101.489 55.6724C101.516 55.7253 101.543 55.7517 101.57 55.8047C101.623 55.8576 101.677 55.9105 101.758 55.9369C101.839 55.9634 101.92 55.9898 102.028 55.9898C102.136 55.9898 102.217 55.9634 102.298 55.9369C102.379 55.9105 102.433 55.8576 102.487 55.8047C102.514 55.7782 102.541 55.7253 102.568 55.6724C102.595 55.6195 102.622 55.5666 102.622 55.4872C102.649 55.4079 102.649 55.3285 102.649 55.1963C102.649 55.0904 102.649 54.9317 102.649 54.773C102.649 54.5879 102.649 54.4556 102.649 54.3498C102.649 54.244 102.622 54.1382 102.622 54.0588C102.595 53.9795 102.595 53.9266 102.568 53.8737C102.541 53.8208 102.514 53.7943 102.487 53.7414C102.433 53.6885 102.379 53.6356 102.298 53.6091C102.217 53.5827 102.136 53.5562 102.028 53.5562Z" fill="#071830"/>
<path d="M106.019 52.9482C106.208 52.9482 106.37 52.9746 106.532 53.0275C106.694 53.0804 106.802 53.1598 106.91 53.2656C107.017 53.3714 107.098 53.4772 107.152 53.6095C107.206 53.7417 107.233 53.9004 107.233 54.0327C107.233 54.165 107.206 54.2708 107.179 54.3766C107.152 54.4824 107.098 54.5617 107.017 54.6411C106.963 54.7204 106.883 54.7998 106.802 54.8527C106.721 54.9056 106.64 54.9585 106.532 54.985L107.368 56.5456H106.532L105.804 55.0908H105.291V56.5456H104.563V52.8953L106.019 52.9482ZM105.291 53.583V54.5353H105.965C106.127 54.5353 106.262 54.4824 106.343 54.403C106.424 54.3237 106.478 54.1914 106.478 54.0591C106.478 53.9269 106.424 53.7946 106.343 53.7153C106.262 53.6359 106.127 53.583 105.965 53.583H105.291Z" fill="#071830"/>
<path d="M112.792 52.9214C113.061 52.9214 113.277 52.9478 113.466 53.0272C113.655 53.0801 113.844 53.2124 114.006 53.3446L113.547 53.7943C113.439 53.6885 113.331 53.6356 113.223 53.5827C113.115 53.5562 112.954 53.5298 112.792 53.5298C112.603 53.5298 112.441 53.5827 112.36 53.662C112.279 53.7414 112.225 53.8737 112.225 53.9795C112.225 54.0853 112.252 54.1646 112.333 54.244C112.36 54.2704 112.414 54.2969 112.468 54.3233C112.522 54.3498 112.576 54.3762 112.657 54.3762L113.088 54.4556C113.25 54.4821 113.412 54.5085 113.52 54.5614C113.628 54.6143 113.736 54.6672 113.817 54.7466C113.925 54.8259 113.979 54.9582 114.033 55.064C114.087 55.1963 114.114 55.3285 114.114 55.5137C114.114 55.6988 114.087 55.8576 114.006 55.9898C113.925 56.1221 113.844 56.2279 113.709 56.3337C113.574 56.4395 113.439 56.4924 113.277 56.5453C113.115 56.5982 112.927 56.6247 112.738 56.6247C112.468 56.6247 112.198 56.5982 111.982 56.5189C111.767 56.4395 111.551 56.3337 111.389 56.1485L111.848 55.6988C111.955 55.8047 112.09 55.884 112.252 55.9369C112.414 55.9898 112.576 56.0163 112.738 56.0163C112.954 56.0163 113.115 55.9898 113.223 55.9105C113.331 55.8311 113.385 55.7253 113.385 55.5666C113.385 55.4343 113.358 55.3285 113.277 55.2756C113.25 55.2492 113.196 55.2227 113.142 55.1963C113.088 55.1698 113.034 55.1698 112.927 55.1434L112.495 55.064C112.171 55.0111 111.928 54.9053 111.767 54.773C111.578 54.6143 111.497 54.3762 111.497 54.0588C111.497 53.9001 111.524 53.7414 111.578 53.6091C111.632 53.4769 111.713 53.3711 111.821 53.2653C111.928 53.1595 112.063 53.0801 112.225 53.0272C112.414 52.9478 112.576 52.9214 112.792 52.9214Z" fill="#071830"/>
<path d="M116.433 52.9214C116.784 52.9214 117.08 53.0272 117.323 53.2124C117.566 53.3975 117.728 53.6885 117.782 54.0853H117.053C117.027 53.9266 116.946 53.8208 116.838 53.7149C116.73 53.6091 116.595 53.5562 116.406 53.5562C116.298 53.5562 116.217 53.5827 116.136 53.6091C116.055 53.6356 116.001 53.6885 115.947 53.7414C115.92 53.7679 115.894 53.8208 115.867 53.8737C115.84 53.9266 115.813 53.9795 115.813 54.0588C115.786 54.1382 115.786 54.2175 115.786 54.3498C115.786 54.4556 115.786 54.6143 115.786 54.773C115.786 54.9582 115.786 55.0904 115.786 55.1963C115.786 55.3021 115.813 55.4079 115.813 55.4872C115.84 55.5666 115.84 55.6195 115.867 55.6724C115.894 55.7253 115.92 55.7517 115.947 55.8047C116.001 55.8576 116.055 55.9105 116.136 55.9369C116.217 55.9634 116.298 55.9898 116.406 55.9898C116.595 55.9898 116.73 55.9369 116.838 55.8311C116.946 55.7253 117 55.6195 117.053 55.4608H117.782C117.728 55.8311 117.566 56.1221 117.323 56.3337C117.08 56.5189 116.784 56.6247 116.433 56.6247C116.217 56.6247 116.028 56.5982 115.867 56.5189C115.705 56.4395 115.57 56.3601 115.435 56.2279C115.354 56.1485 115.273 56.0427 115.219 55.9369C115.165 55.8311 115.138 55.7253 115.111 55.6195C115.084 55.5137 115.084 55.3814 115.057 55.2227C115.057 55.0904 115.057 54.9317 115.057 54.7466C115.057 54.5614 115.057 54.4292 115.057 54.2704C115.057 54.1382 115.084 54.0059 115.111 53.8737C115.138 53.7679 115.165 53.6356 115.219 53.5562C115.273 53.4504 115.354 53.3711 115.435 53.2653C115.57 53.133 115.705 53.0536 115.867 52.9743C116.028 52.9478 116.217 52.9214 116.433 52.9214Z" fill="#071830"/>
<path d="M119.562 56.5986H118.833V52.9482H119.562V56.5986Z" fill="#071830"/>
<path d="M123.317 53.5827H121.591V54.4291H123.047V55.064H121.591V55.9369H123.317V56.5718H120.862V52.9214H123.317V53.5827Z" fill="#071830"/>
<path d="M127.31 56.5986H126.662L125.178 54.3766V56.5986H124.45V52.9482H125.098L126.554 55.1702V52.9482H127.283L127.31 56.5986Z" fill="#071830"/>
<path d="M130.977 53.5831H130.006V56.5986H129.278V53.5831H128.307V52.9482H130.977V53.5831Z" fill="#071830"/>
<path d="M132.73 56.5986H132.002V52.9482H132.73V56.5986Z" fill="#071830"/>
<path d="M136.446 53.5831H134.719V54.4825H136.176V55.1173H134.719V56.5986H133.991V52.9482H136.446V53.5831Z" fill="#071830"/>
<path d="M138.226 56.5986H137.498V52.9482H138.226V56.5986Z" fill="#071830"/>
<path d="M140.795 52.9214C141.146 52.9214 141.443 53.0272 141.685 53.2124C141.928 53.3975 142.09 53.6885 142.144 54.0853H141.416C141.389 53.9266 141.308 53.8208 141.2 53.7149C141.092 53.6091 140.957 53.5562 140.768 53.5562C140.66 53.5562 140.579 53.5827 140.498 53.6091C140.418 53.6356 140.364 53.6885 140.31 53.7414C140.283 53.7679 140.256 53.8208 140.229 53.8737C140.202 53.9266 140.175 53.9795 140.175 54.0588C140.148 54.1382 140.148 54.2175 140.148 54.3498C140.148 54.4556 140.148 54.6143 140.148 54.773C140.148 54.9582 140.148 55.0904 140.148 55.1963C140.148 55.3021 140.175 55.4079 140.175 55.4872C140.202 55.5666 140.202 55.6195 140.229 55.6724C140.256 55.7253 140.283 55.7517 140.31 55.8047C140.364 55.8576 140.418 55.9105 140.498 55.9369C140.579 55.9634 140.66 55.9898 140.768 55.9898C140.957 55.9898 141.092 55.9369 141.2 55.8311C141.308 55.7253 141.362 55.6195 141.416 55.4608H142.144C142.09 55.8311 141.928 56.1221 141.685 56.3337C141.443 56.5189 141.146 56.6247 140.795 56.6247C140.579 56.6247 140.391 56.5982 140.229 56.5189C140.067 56.4395 139.932 56.3601 139.797 56.2279C139.716 56.1485 139.635 56.0427 139.581 55.9369C139.527 55.8311 139.5 55.7253 139.473 55.6195C139.446 55.5137 139.446 55.3814 139.419 55.2227C139.419 55.0904 139.419 54.9317 139.419 54.7466C139.419 54.5614 139.419 54.4292 139.419 54.2704C139.419 54.1117 139.446 54.0059 139.473 53.8737C139.5 53.7679 139.527 53.6356 139.581 53.5562C139.635 53.4504 139.716 53.3711 139.797 53.2653C139.932 53.133 140.067 53.0536 140.229 52.9743C140.391 52.9478 140.579 52.9214 140.795 52.9214Z" fill="#071830"/>
<path d="M147.263 53.5827H145.536V54.4291H146.993V55.064H145.536V55.9369H147.263V56.5718H144.808V52.9214H147.263V53.5827Z" fill="#071830"/>
<path d="M151.255 56.5986H150.608L149.124 54.3766V56.5986H148.396V52.9482H149.043L150.5 55.1702V52.9482H151.228L151.255 56.5986Z" fill="#071830"/>
<path d="M154.923 53.5831H153.952V56.5986H153.223V53.5831H152.252V52.9482H154.923V53.5831Z" fill="#071830"/>
<path d="M157.411 52.9482C157.6 52.9482 157.762 52.9746 157.924 53.0275C158.085 53.0804 158.193 53.1598 158.301 53.2656C158.409 53.3714 158.49 53.4772 158.544 53.6095C158.598 53.7417 158.625 53.9004 158.625 54.0327C158.625 54.165 158.598 54.2708 158.571 54.3766C158.544 54.4824 158.49 54.5617 158.409 54.6411C158.355 54.7204 158.274 54.7998 158.193 54.8527C158.112 54.9056 158.032 54.9585 157.924 54.985L158.76 56.5456H157.924L157.195 55.0908H156.683V56.5456H155.954V52.8953L157.411 52.9482ZM156.683 53.583V54.5353H157.357C157.519 54.5353 157.654 54.4824 157.735 54.403C157.816 54.3237 157.87 54.1914 157.87 54.0591C157.87 53.9269 157.816 53.7946 157.735 53.7153C157.654 53.6359 157.519 53.583 157.357 53.583H156.683Z" fill="#071830"/>
<path d="M162.239 53.5827H160.512V54.4291H161.969V55.064H160.512V55.9369H162.239V56.5718H159.784V52.9214H162.239V53.5827Z" fill="#071830"/>
<path d="M164.802 52.9482C164.99 52.9482 165.152 52.9747 165.314 53.0276C165.476 53.0805 165.584 53.1599 165.692 53.2657C165.8 53.3715 165.881 53.4773 165.935 53.636C165.989 53.7683 166.015 53.927 166.015 54.0857C166.015 54.2444 165.989 54.3766 165.935 54.5354C165.881 54.6676 165.8 54.7999 165.692 54.9057C165.584 55.0115 165.449 55.0909 165.314 55.1438C165.179 55.1967 164.99 55.2231 164.802 55.2231H164.1V56.5986H163.372V52.9482H164.802ZM164.1 53.5831V54.5883H164.775C164.936 54.5883 165.071 54.5354 165.179 54.456C165.287 54.3766 165.314 54.2444 165.314 54.0857C165.314 53.927 165.26 53.8212 165.179 53.7153C165.071 53.636 164.963 53.5831 164.775 53.5831H164.1Z" fill="#071830"/>
<path d="M168.524 52.9482C168.713 52.9482 168.875 52.9746 169.036 53.0275C169.198 53.0804 169.306 53.1598 169.414 53.2656C169.522 53.3714 169.603 53.4772 169.657 53.6095C169.711 53.7417 169.738 53.9004 169.738 54.0327C169.738 54.165 169.711 54.2708 169.684 54.3766C169.657 54.4824 169.603 54.5617 169.522 54.6411C169.468 54.7204 169.387 54.7998 169.306 54.8527C169.225 54.9056 169.144 54.9585 169.036 54.985L169.873 56.5456H169.036L168.308 55.0908H167.795V56.5456H167.067V52.8953L168.524 52.9482ZM167.795 53.583V54.5353H168.47C168.632 54.5353 168.767 54.4824 168.848 54.403C168.929 54.3237 168.982 54.1914 168.982 54.0591C168.982 53.9269 168.929 53.7946 168.848 53.7153C168.767 53.6359 168.632 53.583 168.47 53.583H167.795Z" fill="#071830"/>
<path d="M173.352 53.5827H171.625V54.4291H173.082V55.064H171.625V55.9369H173.352V56.5718H170.897V52.9214H173.352V53.5827Z" fill="#071830"/>
<path d="M177.317 56.5986H176.67L175.186 54.3766V56.5986H174.458V52.9482H175.105L176.562 55.1702V52.9482H177.29L177.317 56.5986Z" fill="#071830"/>
<path d="M181.071 53.5827H179.345V54.4291H180.802V55.064H179.345V55.9369H181.071V56.5718H178.617V52.9214H181.071V53.5827Z" fill="#071830"/>
<path d="M184.875 55.3548C184.875 55.54 184.848 55.7251 184.767 55.8838C184.687 56.0425 184.606 56.1748 184.471 56.2806C184.336 56.3864 184.201 56.4658 184.039 56.5451C183.877 56.598 183.688 56.6245 183.5 56.6245C183.311 56.6245 183.122 56.598 182.96 56.5451C182.798 56.4922 182.663 56.3864 182.528 56.2806C182.394 56.1748 182.313 56.0425 182.232 55.8838C182.151 55.7251 182.124 55.54 182.124 55.3548V52.9741H182.852V55.3283C182.852 55.54 182.906 55.6987 183.014 55.8309C183.122 55.9632 183.284 56.0161 183.473 56.0161C183.661 56.0161 183.823 55.9632 183.931 55.8309C184.039 55.6987 184.093 55.54 184.093 55.3283V52.9741H184.821L184.875 55.3548Z" fill="#071830"/>
<path d="M187.571 52.9482C187.76 52.9482 187.922 52.9746 188.084 53.0275C188.246 53.0804 188.354 53.1598 188.462 53.2656C188.57 53.3714 188.65 53.4772 188.704 53.6095C188.758 53.7417 188.785 53.9004 188.785 54.0327C188.785 54.165 188.758 54.2708 188.731 54.3766C188.704 54.4824 188.65 54.5617 188.57 54.6411C188.516 54.7204 188.435 54.7998 188.354 54.8527C188.273 54.9056 188.192 54.9585 188.084 54.985L188.92 56.5456H188.084L187.356 55.0908H186.843V56.5456H186.115V52.8953H187.571V52.9482ZM186.843 53.583V54.5353H187.517C187.679 54.5353 187.814 54.4824 187.895 54.403C187.976 54.3237 188.03 54.1914 188.03 54.0591C188.03 53.9269 187.976 53.7946 187.895 53.7153C187.814 53.6359 187.679 53.583 187.517 53.583H186.843Z" fill="#071830"/>
<path d="M191.052 52.9214C191.321 52.9214 191.537 52.9478 191.726 53.0272C191.915 53.0801 192.104 53.2124 192.265 53.3446L191.807 53.7943C191.699 53.6885 191.591 53.6356 191.483 53.5827C191.375 53.5562 191.213 53.5298 191.052 53.5298C190.863 53.5298 190.701 53.5827 190.62 53.662C190.539 53.7414 190.485 53.8737 190.485 53.9795C190.485 54.0853 190.512 54.1646 190.593 54.244C190.62 54.2704 190.674 54.2969 190.728 54.3233C190.782 54.3498 190.836 54.3762 190.917 54.3762L191.348 54.4556C191.51 54.4821 191.672 54.5085 191.78 54.5614C191.888 54.6143 191.996 54.6672 192.077 54.7466C192.185 54.8259 192.239 54.9582 192.292 55.064C192.346 55.1963 192.373 55.3285 192.373 55.5137C192.373 55.6988 192.346 55.8576 192.265 55.9898C192.185 56.1221 192.104 56.2279 191.969 56.3337C191.834 56.4395 191.699 56.4924 191.537 56.5453C191.375 56.5982 191.186 56.6247 190.998 56.6247C190.728 56.6247 190.458 56.5982 190.242 56.5189C190.026 56.4395 189.811 56.3337 189.649 56.1485L190.107 55.6988C190.215 55.8047 190.35 55.884 190.512 55.9369C190.674 55.9898 190.836 56.0163 190.998 56.0163C191.213 56.0163 191.375 55.9898 191.483 55.9105C191.591 55.8311 191.645 55.7253 191.645 55.5666C191.645 55.4343 191.618 55.3285 191.537 55.2756C191.51 55.2492 191.456 55.2227 191.402 55.1963C191.348 55.1698 191.294 55.1698 191.186 55.1434L190.755 55.064C190.431 55.0111 190.188 54.9053 190.026 54.773C189.838 54.6143 189.757 54.3762 189.757 54.0588C189.757 53.9001 189.784 53.7414 189.838 53.6091C189.892 53.4769 189.973 53.3711 190.08 53.2653C190.188 53.1595 190.323 53.0801 190.485 53.0272C190.674 52.9478 190.836 52.9214 191.052 52.9214Z" fill="#071830"/>
<path d="M196.149 56.5986H195.421V55.0644H194.153V56.5986H193.425V52.9482H194.153V54.4296H195.421V52.9482H196.149V56.5986Z" fill="#071830"/>
<path d="M198.171 56.5986H197.443V52.9482H198.171V56.5986Z" fill="#071830"/>
<path d="M200.921 52.9482C201.11 52.9482 201.272 52.9747 201.434 53.0276C201.596 53.0805 201.704 53.1599 201.812 53.2657C201.92 53.3715 202 53.4773 202.054 53.636C202.108 53.7683 202.135 53.927 202.135 54.0857C202.135 54.2444 202.108 54.3766 202.054 54.5354C202 54.6676 201.92 54.7999 201.812 54.9057C201.704 55.0115 201.569 55.0909 201.434 55.1438C201.299 55.1967 201.11 55.2231 200.921 55.2231H200.22V56.5986H199.492V52.9482H200.921ZM200.193 53.5831V54.5883H200.867C201.029 54.5883 201.164 54.5354 201.272 54.456C201.38 54.3766 201.407 54.2444 201.407 54.0857C201.407 53.927 201.353 53.8212 201.272 53.7153C201.164 53.636 201.056 53.5831 200.867 53.5831H200.193Z" fill="#071830"/>
</svg>
