<svg width="236" height="80" viewBox="0 0 236 80" fill="none" xmlns="http://www.w3.org/2000/svg">
<g clip-path="url(#clip0_937_4032)">
<path d="M148.815 70.8151H87.1851V9.18506H148.815V70.8151ZM88.8651 69.1351H147.135V10.8651H88.8651V69.1351Z" fill="#C7DBF2"/>
<path d="M117.835 56.4351C117.835 57.7951 117.415 59.1451 116.315 61.0151L113.855 65.1651H110.015C110.895 63.7051 111.785 62.2051 112.665 60.7351C112.375 60.7751 112.085 60.7951 111.785 60.7951C109.125 60.7951 107.265 59.0151 107.265 56.4451C107.265 53.5251 109.415 51.5151 112.535 51.5151C115.655 51.5151 117.835 53.5251 117.835 56.4251V56.4351ZM114.505 56.4551C114.505 55.3351 113.685 54.5651 112.555 54.5651C111.425 54.5651 110.605 55.3351 110.605 56.4551C110.605 57.5751 111.405 58.3651 112.555 58.3651C113.705 58.3651 114.505 57.5851 114.505 56.4551Z" fill="#C7DBF2"/>
<path d="M119.095 58.5352C119.095 54.2752 121.375 51.5452 124.915 51.5452C128.455 51.5452 130.735 54.2752 130.735 58.5352C130.735 62.7952 128.445 65.5252 124.915 65.5252C121.385 65.5252 119.095 62.7852 119.095 58.5352ZM127.095 58.5452C127.095 56.0952 126.305 54.7152 124.915 54.7152C123.525 54.7152 122.735 56.0852 122.735 58.5352C122.735 60.9852 123.515 62.3552 124.915 62.3552C126.315 62.3552 127.095 60.9952 127.095 58.5452Z" fill="#C7DBF2"/>
<path d="M142.555 62.7752H141.355V65.1652H137.935V62.7752H131.545V62.1252L135.805 51.8652H139.335L136.045 59.7952H138.175L138.955 56.8652H141.355V59.7952H142.555V62.7752Z" fill="#C7DBF2"/>
<path d="M107.535 42.3752H107.965C107.965 43.8052 109.065 44.7352 110.725 44.7352C112.235 44.7352 113.295 43.8652 113.295 42.5952C113.295 41.1552 112.015 40.8752 110.655 40.5752C109.245 40.2652 107.735 39.9252 107.735 38.2452C107.735 36.7852 108.885 35.8452 110.655 35.8452C112.425 35.8452 113.485 36.8452 113.485 38.3752H113.065C113.065 37.0852 112.095 36.2552 110.645 36.2552C109.195 36.2552 108.155 37.0352 108.155 38.2352C108.155 39.6152 109.445 39.8852 110.785 40.1852C112.225 40.5052 113.735 40.8452 113.735 42.6052C113.735 44.1552 112.485 45.1652 110.735 45.1652C108.815 45.1652 107.545 44.0652 107.545 42.3852L107.535 42.3752Z" fill="#C7DBF2"/>
<path d="M122.755 41.5353C122.755 43.6053 121.275 45.1853 119.185 45.1853C117.755 45.1853 116.575 44.4153 115.995 43.2353V47.5253H115.575V38.0253H115.895L115.975 39.8653C116.555 38.6753 117.735 37.8953 119.175 37.8953C121.255 37.8953 122.745 39.4653 122.745 41.5453L122.755 41.5353ZM122.335 41.5353C122.335 39.6653 120.995 38.2953 119.165 38.2953C117.335 38.2953 115.985 39.6853 115.985 41.5353C115.985 43.3853 117.355 44.7753 119.165 44.7753C120.975 44.7753 122.335 43.4053 122.335 41.5353Z" fill="#C7DBF2"/>
<path d="M131.135 38.0253V45.0453H130.775L130.725 43.2153C130.165 44.4053 128.995 45.1853 127.525 45.1853C125.485 45.1853 123.945 43.6153 123.945 41.5353C123.945 39.4553 125.485 37.8853 127.525 37.8853C128.995 37.8853 130.165 38.6653 130.735 39.8553L130.785 38.0253H131.135ZM130.715 41.5353C130.715 39.6653 129.385 38.2953 127.545 38.2953C125.705 38.2953 124.365 39.6953 124.365 41.5353C124.365 43.3753 125.735 44.7753 127.545 44.7753C129.355 44.7753 130.715 43.4053 130.715 41.5353Z" fill="#C7DBF2"/>
<path d="M137.055 38.0051V38.4051H136.425C134.955 38.4051 133.975 39.5351 133.975 41.0951V45.0451H133.555V38.0251H133.885L133.955 39.6151C134.395 38.6251 135.265 38.0051 136.445 38.0051H137.045H137.055Z" fill="#C7DBF2"/>
<path d="M140.125 41.5752H138.815V45.0452H138.395V35.5452H138.815V41.1852H140.135L142.875 38.0252H143.395L140.485 41.3852L143.655 45.0452H143.125L140.125 41.5752Z" fill="#C7DBF2"/>
</g>
<defs>
<clipPath id="clip0_937_4032">
<rect width="61.63" height="61.63" fill="white" transform="translate(87.1851 9.18506)"/>
</clipPath>
</defs>
</svg>
