<svg width="236" height="80" viewBox="0 0 236 80" fill="none" xmlns="http://www.w3.org/2000/svg">
<g clip-path="url(#clip0_937_3985)">
<path d="M54.1395 46.7491C53.3527 46.7491 52.6729 46.6396 52.1015 46.4191C51.5301 46.1986 51.0584 45.8933 50.6862 45.5005C50.3141 45.1077 50.0387 44.6403 49.8614 44.0985C49.6841 43.5567 49.5947 42.9565 49.5947 42.3008V35.5728C49.5947 35.4516 49.6929 35.3538 49.8145 35.3538H51.8964C52.018 35.3538 52.1162 35.4516 52.1162 35.5728V42.0905C52.1162 42.5418 52.1675 42.9258 52.27 43.2428C52.3726 43.5597 52.5132 43.8181 52.6905 44.0168C52.8678 44.2154 53.0846 44.3585 53.3381 44.4432C53.5915 44.5293 53.8684 44.5717 54.1703 44.5717C54.7841 44.5717 55.2837 44.3833 55.6661 44.008C56.0485 43.6327 56.2405 42.993 56.2405 42.0905V35.5728C56.2405 35.4516 56.3386 35.3538 56.4602 35.3538H58.5421C58.6637 35.3538 58.7619 35.4516 58.7619 35.5728V42.3008C58.7619 42.9565 58.6696 43.5582 58.4865 44.1058C58.3033 44.6535 58.0235 45.1237 57.6455 45.5166C57.2675 45.9094 56.7884 46.2117 56.2068 46.4278C55.6251 46.6425 54.935 46.7506 54.1366 46.7506L54.1395 46.7491Z" fill="#C7DBF2"/>
<path d="M63.4777 46.5242C63.4 46.5242 63.3297 46.4818 63.2946 46.4132C62.7613 45.3631 62.2192 44.1437 61.6712 42.752C61.1335 41.3865 60.6207 39.9072 60.1358 38.3095C60.0962 38.1781 60.1944 38.0452 60.3321 38.0452H62.4536C62.5459 38.0452 62.6279 38.1065 62.6514 38.197C62.751 38.5738 62.8653 38.9769 62.9942 39.4077C63.1407 39.8969 63.2916 40.3905 63.4484 40.89C63.6052 41.3894 63.7619 41.8758 63.9187 42.3489C64.0081 42.6176 64.0974 42.8732 64.1839 43.1142C64.2498 43.2952 64.5047 43.2938 64.5692 43.1142C64.6542 42.8732 64.7436 42.6176 64.8359 42.3489C64.9985 41.8758 65.1582 41.3894 65.3149 40.89C65.4717 40.3905 65.6241 39.8955 65.7691 39.4077C65.8981 38.9769 66.0123 38.5738 66.1105 38.197C66.1339 38.108 66.2145 38.0452 66.3083 38.0452H68.3668C68.5045 38.0452 68.6026 38.1781 68.5631 38.3095C68.0781 39.9057 67.5668 41.3865 67.0291 42.752C66.4812 44.1423 65.9405 45.3631 65.4072 46.4132C65.3721 46.4818 65.3018 46.5242 65.2241 46.5242H63.4762H63.4777Z" fill="#C7DBF2"/>
<path d="M77.7968 46.5242C77.6796 46.5242 77.577 46.4498 77.5404 46.3388C77.4334 46.0087 77.3191 45.6728 77.1975 45.3282C77.0759 44.9835 76.9529 44.6316 76.8313 44.2869C76.7932 44.1789 76.6906 44.1073 76.5763 44.1073H72.5839C72.4682 44.1073 72.3671 44.1803 72.329 44.2884C72.2088 44.636 72.0872 44.9835 71.9656 45.3326C71.8455 45.6772 71.7342 46.0131 71.6287 46.3388C71.592 46.4498 71.4895 46.5242 71.3723 46.5242H69.3299C69.1438 46.5242 69.0134 46.3402 69.075 46.165C69.45 45.0989 69.809 44.1058 70.1489 43.1873C70.5269 42.1664 70.8976 41.2041 71.2595 40.3015C71.6213 39.399 71.9788 38.5418 72.3304 37.7313C72.6586 36.9733 73 36.2315 73.3516 35.5056C73.397 35.4122 73.4923 35.3538 73.5948 35.3538H75.6445C75.7485 35.3538 75.8438 35.4136 75.8892 35.5071C76.232 36.2315 76.5705 36.9733 76.9045 37.7313C77.262 38.5432 77.6224 39.399 77.9843 40.3015C78.3462 41.2041 78.7183 42.1664 79.0963 43.1873C79.4377 44.1058 79.7952 45.0974 80.1717 46.1635C80.2332 46.3388 80.1028 46.5228 79.9168 46.5228H77.7924L77.7968 46.5242ZM74.8314 38.533C74.742 38.3037 74.4168 38.3052 74.3289 38.533C74.3274 38.5374 74.3259 38.5418 74.3245 38.5462C74.216 38.8251 74.093 39.1478 73.9538 39.5144C73.8146 39.8809 73.6608 40.2826 73.4893 40.7236C73.3619 41.0522 73.233 41.3924 73.1011 41.7444C73.0352 41.9211 73.1656 42.108 73.3546 42.108H75.7896C75.9756 42.108 76.106 41.924 76.0445 41.7488C75.9185 41.3939 75.794 41.0507 75.6738 40.7192C75.5127 40.2782 75.3603 39.8736 75.2152 39.5086C75.0702 39.142 74.9442 38.8207 74.8343 38.5418C74.8343 38.5389 74.8328 38.5359 74.8314 38.533Z" fill="#C7DBF2"/>
<path d="M89.0776 46.5242C89.0131 46.5242 88.9545 46.4877 88.9267 46.4293C88.496 45.5209 88.0711 44.579 87.6521 43.6035C87.2184 42.5943 86.8052 41.5969 86.4155 40.6082C86.0243 39.621 85.6654 38.6747 85.3387 37.7722C85.0442 36.9602 84.7863 36.2285 84.5636 35.5728C84.527 35.4647 84.6076 35.3538 84.7219 35.3538H87.1495C87.2213 35.3538 87.2858 35.399 87.3078 35.4677C87.5085 36.0825 87.7282 36.7397 87.97 37.4421C88.2264 38.1884 88.4886 38.9317 88.7553 39.6721C89.0219 40.4125 89.2769 41.1223 89.5215 41.8014C89.7091 42.3227 89.8907 42.79 90.0666 43.2019C90.1237 43.3377 90.3186 43.3362 90.3742 43.1989C90.5427 42.79 90.7215 42.3256 90.9134 41.8057C91.1625 41.1281 91.4218 40.4184 91.687 39.678C91.9536 38.9375 92.2144 38.1942 92.4708 37.4479C92.7125 36.7455 92.9338 36.0854 93.1345 35.4691C93.1565 35.4005 93.2209 35.3552 93.2927 35.3552H95.6208C95.7365 35.3552 95.8171 35.4677 95.779 35.5757C95.5461 36.2329 95.2838 36.966 94.9908 37.7751C94.6641 38.6761 94.3066 39.621 93.9183 40.6097C93.5301 41.5984 93.1213 42.5973 92.6906 43.6078C92.2598 44.6184 91.8511 45.5239 91.4232 46.4293C91.3954 46.4877 91.3368 46.5242 91.2723 46.5242H89.0791H89.0776Z" fill="#C7DBF2"/>
<path d="M95.8423 42.349C95.8423 41.5969 95.958 40.9382 96.1895 40.3745C96.421 39.8108 96.7257 39.3406 97.1037 38.9638C97.4803 38.5885 97.9154 38.3037 98.4048 38.1095C98.8956 37.9167 99.3996 37.8188 99.9167 37.8188C101.124 37.8188 102.078 38.1869 102.78 38.9229C103.48 39.6589 103.83 40.7411 103.83 42.1708C103.83 42.311 103.824 42.4643 103.814 42.6308C103.808 42.7228 103.802 42.809 103.796 42.8893C103.789 42.993 103.701 43.0733 103.597 43.0733H98.5557C98.4223 43.0733 98.33 43.1989 98.3623 43.3274C98.459 43.7042 98.6758 44.0109 99.0113 44.2504C99.4215 44.541 99.971 44.6856 100.661 44.6856C101.103 44.6856 101.537 44.6447 101.962 44.5644C102.277 44.5045 102.55 44.4344 102.78 44.3541C102.898 44.3132 103.024 44.3862 103.045 44.5089L103.303 46.0642C103.317 46.1562 103.269 46.2467 103.182 46.2818C103.077 46.3241 102.952 46.3679 102.81 46.4103C102.595 46.4745 102.355 46.5315 102.091 46.5797C101.827 46.6279 101.543 46.6688 101.243 46.7009C100.941 46.733 100.639 46.7491 100.337 46.7491C99.571 46.7491 98.9058 46.6366 98.3403 46.4103C97.7748 46.1839 97.3059 45.8758 96.9338 45.4829C96.5616 45.0901 96.2877 44.6257 96.1089 44.0883C95.9317 43.5509 95.8423 42.9711 95.8423 42.3475V42.349ZM101.279 41.4304C101.401 41.4304 101.496 41.3223 101.479 41.2011C101.461 41.0799 101.433 40.9543 101.397 40.8331C101.336 40.6403 101.246 40.468 101.121 40.3176C100.997 40.1671 100.841 40.043 100.652 39.9466C100.463 39.8502 100.229 39.802 99.949 39.802C99.6691 39.802 99.4479 39.8473 99.253 39.9393C99.0597 40.0313 98.897 40.1511 98.7681 40.3015C98.6392 40.4519 98.5395 40.6272 98.4692 40.8258C98.4267 40.9455 98.3916 41.0653 98.3637 41.185C98.3359 41.3048 98.4311 41.4289 98.5601 41.4289H101.279V41.4304Z" fill="#C7DBF2"/>
<path d="M105.689 38.5051C105.689 38.4029 105.758 38.3152 105.858 38.2889C106.24 38.1882 106.714 38.0933 107.275 38.0042C107.921 37.9019 108.601 37.8508 109.313 37.8508C110.025 37.8508 110.636 37.9458 111.116 38.1327C111.595 38.3211 111.976 38.5869 112.256 38.9301C112.536 39.2747 112.735 39.6822 112.854 40.1553C112.973 40.6285 113.031 41.1542 113.031 41.7354V46.3006C113.031 46.4233 112.931 46.5226 112.808 46.5226H110.845C110.722 46.5226 110.622 46.4233 110.622 46.3006V42.0261C110.622 41.2521 110.52 40.7044 110.315 40.3817C110.11 40.0589 109.727 39.8983 109.166 39.8983C108.993 39.8983 108.81 39.907 108.617 39.9231C108.502 39.9333 108.396 39.9436 108.296 39.9552C108.183 39.9684 108.1 40.0633 108.1 40.1758V46.3006C108.1 46.4233 108 46.5226 107.877 46.5226H105.914C105.791 46.5226 105.691 46.4233 105.691 46.3006V38.5051H105.689Z" fill="#C7DBF2"/>
<path d="M115.292 35.9088L117.325 35.5817C117.439 35.5627 117.543 35.6518 117.543 35.7671V37.8569C117.543 37.9606 117.628 38.0439 117.731 38.0439H120.249C120.353 38.0439 120.437 38.1286 120.437 38.2308V39.8547C120.437 39.9584 120.352 40.0417 120.249 40.0417H117.731C117.627 40.0417 117.543 40.1264 117.543 40.2286V43.0223C117.543 43.5276 117.633 43.9307 117.81 44.2315C117.987 44.5324 118.346 44.6828 118.885 44.6828C119.145 44.6828 119.411 44.6579 119.685 44.6098C119.882 44.5747 120.066 44.5309 120.238 44.4769C120.345 44.4433 120.456 44.5134 120.475 44.6229L120.748 46.1256C120.764 46.2147 120.715 46.3023 120.63 46.3345C120.378 46.4294 120.103 46.5126 119.804 46.5842C119.448 46.6704 119.011 46.7127 118.494 46.7127C117.836 46.7127 117.291 46.6236 116.861 46.4469C116.43 46.2702 116.084 46.0219 115.826 45.705C115.567 45.3881 115.387 45.0041 115.284 44.5528C115.182 44.1015 115.13 43.6021 115.13 43.0544V36.0899C115.13 35.9979 115.198 35.919 115.289 35.9044L115.292 35.9088Z" fill="#C7DBF2"/>
<path d="M129.652 46.061C129.652 46.1646 129.582 46.2537 129.482 46.28C129.1 46.3808 128.628 46.4757 128.068 46.5633C127.422 46.6656 126.742 46.7167 126.03 46.7167C125.318 46.7167 124.707 46.6203 124.227 46.4261C123.748 46.2333 123.367 45.9617 123.087 45.6126C122.807 45.2636 122.608 44.8474 122.489 44.364C122.371 43.8806 122.312 43.349 122.312 42.7678V38.2713C122.312 38.1457 122.413 38.0449 122.539 38.0449H124.495C124.621 38.0449 124.722 38.1457 124.722 38.2713V42.4772C124.722 43.2512 124.825 43.8091 125.03 44.1537C125.235 44.4984 125.617 44.6692 126.178 44.6692C126.351 44.6692 126.534 44.6605 126.728 44.6444C126.841 44.6356 126.948 44.6254 127.046 44.6137C127.16 44.6006 127.245 44.5042 127.245 44.3888V38.2698C127.245 38.1442 127.346 38.0435 127.472 38.0435H129.428C129.554 38.0435 129.655 38.1442 129.655 38.2698V46.0595L129.652 46.061Z" fill="#C7DBF2"/>
<path d="M137.104 39.8735C137.071 40.0356 136.911 40.1393 136.75 40.1028C136.606 40.0707 136.451 40.0371 136.284 40.0035C135.992 39.9451 135.68 39.9144 135.346 39.9144C135.195 39.9144 135.015 39.9275 134.804 39.9553C134.718 39.967 134.64 39.9772 134.571 39.9903C134.429 40.0152 134.327 40.1378 134.327 40.281V46.2276C134.327 46.3912 134.193 46.5226 134.031 46.5226H132.214C132.05 46.5226 131.918 46.3897 131.918 46.2276V38.7081C131.918 38.5796 132.001 38.4657 132.125 38.4263C132.51 38.3007 132.949 38.1824 133.446 38.0685C134.034 37.9341 134.688 37.8669 135.411 37.8669C135.54 37.8669 135.696 37.8757 135.88 37.8918C136.063 37.9078 136.246 37.9297 136.429 37.956C136.612 37.9823 136.795 38.0159 136.978 38.0524C137.05 38.067 137.119 38.0831 137.184 38.1006C137.334 38.1415 137.427 38.2919 137.396 38.4453L137.104 39.8735Z" fill="#C7DBF2"/>
<path d="M138.175 42.349C138.175 41.5969 138.291 40.9382 138.522 40.3745C138.754 39.8108 139.058 39.3406 139.436 38.9638C139.813 38.5885 140.248 38.3037 140.737 38.1095C141.228 37.9167 141.732 37.8188 142.249 37.8188C143.457 37.8188 144.41 38.1869 145.112 38.9229C145.812 39.6589 146.163 40.7411 146.163 42.1708C146.163 42.311 146.157 42.4643 146.146 42.6308C146.141 42.7301 146.133 42.8221 146.127 42.9068C146.12 43.0017 146.041 43.0733 145.946 43.0733H140.863C140.748 43.0733 140.66 43.1799 140.685 43.2909C140.775 43.6837 140.995 44.0036 141.342 44.2489C141.753 44.5395 142.302 44.6841 142.992 44.6841C143.435 44.6841 143.868 44.6432 144.293 44.5629C144.618 44.5016 144.898 44.4285 145.133 44.3453C145.24 44.3073 145.354 44.373 145.373 44.4855L145.637 46.0773C145.65 46.1606 145.606 46.2423 145.528 46.2745C145.42 46.3197 145.291 46.3636 145.141 46.4088C144.926 46.4731 144.686 46.53 144.422 46.5782C144.158 46.6264 143.874 46.6673 143.574 46.6994C143.272 46.7316 142.97 46.7476 142.668 46.7476C141.902 46.7476 141.237 46.6352 140.671 46.4088C140.106 46.1825 139.637 45.8743 139.265 45.4815C138.893 45.0886 138.619 44.6242 138.44 44.0868C138.263 43.5494 138.173 42.9696 138.173 42.346L138.175 42.349ZM143.634 41.4304C143.744 41.4304 143.83 41.3325 143.814 41.223C143.796 41.0916 143.767 40.9616 143.729 40.8331C143.669 40.6403 143.578 40.468 143.454 40.3176C143.329 40.1671 143.174 40.043 142.985 39.9466C142.796 39.8502 142.561 39.802 142.281 39.802C142.002 39.802 141.78 39.8473 141.586 39.9393C141.392 40.0313 141.23 40.1511 141.101 40.3015C140.972 40.4519 140.872 40.6272 140.802 40.8258C140.758 40.9528 140.72 41.0799 140.69 41.2084C140.664 41.3223 140.752 41.4304 140.868 41.4304H143.632H143.634Z" fill="#C7DBF2"/>
<path d="M150.464 44.7995C150.907 44.7995 151.219 44.7571 151.402 44.671C151.585 44.5848 151.677 44.4183 151.677 44.1715C151.677 43.9788 151.559 43.8093 151.321 43.6633C151.084 43.5187 150.723 43.3552 150.237 43.1712C149.859 43.031 149.518 42.8864 149.21 42.736C148.902 42.5855 148.642 42.4059 148.426 42.1956C148.211 41.9868 148.044 41.7356 147.925 41.4464C147.806 41.1558 147.748 40.8068 147.748 40.3994C147.748 39.6049 148.044 38.9755 148.637 38.514C149.231 38.0525 150.044 37.8203 151.079 37.8203C151.597 37.8203 152.093 37.8656 152.567 37.9576C152.927 38.0277 153.23 38.1007 153.479 38.1796C153.605 38.219 153.677 38.3504 153.649 38.4775L153.34 39.8517C153.308 39.9963 153.16 40.0839 153.018 40.0401C152.813 39.9773 152.594 39.9189 152.366 39.8663C152.036 39.7918 151.668 39.7539 151.258 39.7539C150.504 39.7539 150.126 39.9642 150.126 40.3818C150.126 40.4782 150.142 40.5644 150.174 40.6403C150.206 40.7163 150.271 40.7878 150.367 40.8579C150.464 40.928 150.596 41.0039 150.763 41.0843C150.93 41.1661 151.142 41.2551 151.402 41.3515C151.929 41.5472 152.366 41.7385 152.712 41.9284C153.056 42.1182 153.328 42.3227 153.528 42.5417C153.727 42.7622 153.868 43.0061 153.948 43.2734C154.029 43.5406 154.07 43.8517 154.07 44.2066C154.07 45.0434 153.755 45.6757 153.123 46.1051C152.493 46.5344 151.601 46.7476 150.447 46.7476C149.692 46.7476 149.063 46.6834 148.562 46.5549C148.206 46.4629 147.929 46.3825 147.727 46.3124C147.606 46.2701 147.537 46.1445 147.563 46.0204L147.864 44.5731C147.894 44.4227 148.051 44.3322 148.196 44.3833C148.518 44.4972 148.848 44.5892 149.185 44.6607C149.616 44.7528 150.042 44.798 150.463 44.798L150.464 44.7995Z" fill="#C7DBF2"/>
<path d="M174.573 35.3538H177.095V46.5242H174.573V41.7853H170.335V46.5242H167.812V35.3538H170.335V39.6254H174.573V35.3538Z" fill="#C7DBF2"/>
<path d="M187.476 42.2689C187.476 42.9348 187.379 43.5453 187.184 44.0987C186.991 44.6522 186.709 45.1254 186.343 45.5168C185.977 45.9096 185.537 46.2119 185.026 46.4281C184.513 46.6427 183.94 46.7508 183.304 46.7508C182.669 46.7508 182.11 46.6427 181.599 46.4281C181.086 46.2134 180.648 45.9096 180.28 45.5168C179.914 45.1239 179.629 44.6522 179.423 44.0987C179.218 43.5453 179.116 42.9363 179.116 42.2689C179.116 41.6015 179.221 40.9954 179.431 40.4478C179.642 39.9001 179.932 39.4328 180.304 39.0458C180.676 38.6588 181.117 38.358 181.63 38.1433C182.141 37.9286 182.699 37.8206 183.303 37.8206C183.907 37.8206 184.481 37.9286 184.992 38.1433C185.504 38.358 185.943 38.6588 186.309 39.0458C186.676 39.4328 186.961 39.9001 187.166 40.4478C187.372 40.9954 187.474 41.603 187.474 42.2689H187.476ZM185.017 42.2689C185.017 41.527 184.869 40.9443 184.572 40.5193C184.276 40.0944 183.852 39.8826 183.303 39.8826C182.754 39.8826 182.327 40.0944 182.025 40.5193C181.724 40.9443 181.573 41.527 181.573 42.2689C181.573 43.0108 181.724 43.5993 182.025 44.0345C182.327 44.4697 182.754 44.6873 183.303 44.6873C183.852 44.6873 184.276 44.4697 184.572 44.0345C184.868 43.5993 185.017 43.0108 185.017 42.2689Z" fill="#C7DBF2"/>
<path d="M192.731 46.6849C192.031 46.6747 191.462 46.5988 191.026 46.46C190.589 46.3198 190.243 46.1242 189.991 45.8715C189.738 45.6189 189.565 45.3122 189.474 44.9529C189.382 44.5937 189.336 44.1877 189.336 43.7364V34.4046L191.747 34.0176V43.253C191.747 43.4677 191.763 43.662 191.795 43.8328C191.827 44.0051 191.889 44.1497 191.981 44.268C192.072 44.3863 192.205 44.4827 192.377 44.5586C192.549 44.6346 192.781 44.6828 193.072 44.7032L192.733 46.6864L192.731 46.6849Z" fill="#C7DBF2"/>
<path d="M201.948 46.25C201.732 46.3142 201.485 46.377 201.203 46.4355C200.924 46.4953 200.629 46.545 200.321 46.5888C200.014 46.6311 199.702 46.6662 199.384 46.6939C199.066 46.7202 198.761 46.7348 198.47 46.7348C197.769 46.7348 197.144 46.6326 196.594 46.4282C196.045 46.2237 195.58 45.9316 195.204 45.549C194.826 45.1678 194.539 44.7049 194.339 44.1631C194.14 43.6213 194.041 43.0109 194.041 42.3332C194.041 41.6556 194.127 41.0247 194.3 40.4712C194.473 39.9178 194.72 39.4475 195.044 39.0605C195.368 38.6735 195.764 38.3785 196.232 38.1741C196.701 37.9696 197.237 37.8674 197.841 37.8674C198.175 37.8674 198.474 37.8995 198.739 37.9638C199.003 38.028 199.269 38.12 199.539 38.2383V34.4019L201.948 34.0149V46.2485V46.25ZM196.499 42.2208C196.499 42.9627 196.666 43.5585 197 44.0098C197.334 44.461 197.831 44.6874 198.487 44.6874C198.703 44.6874 198.902 44.6786 199.085 44.6625C199.268 44.6465 199.419 44.6275 199.538 44.6056V40.2376C199.387 40.1412 199.19 40.0609 198.947 39.9952C198.704 39.9309 198.459 39.8988 198.212 39.8988C197.069 39.8988 196.498 40.6728 196.498 42.2193L196.499 42.2208Z" fill="#C7DBF2"/>
<path d="M206.847 35.596C206.847 36.037 206.704 36.3832 206.419 36.6358C206.134 36.8885 205.797 37.014 205.408 37.014C205.02 37.014 204.683 36.8885 204.398 36.6358C204.112 36.3832 203.97 36.037 203.97 35.596C203.97 35.155 204.112 34.8089 204.398 34.5562C204.683 34.3036 205.02 34.178 205.408 34.178C205.797 34.178 206.134 34.305 206.419 34.5562C206.705 34.8089 206.847 35.155 206.847 35.596ZM206.622 46.5241H204.211V38.0465H206.622V46.5241Z" fill="#C7DBF2"/>
<path d="M208.884 38.3359C209.295 38.2176 209.822 38.1081 210.47 38.0059C211.116 37.9037 211.795 37.8525 212.507 37.8525C213.22 37.8525 213.83 37.9475 214.311 38.1344C214.79 38.3228 215.171 38.5886 215.451 38.9318C215.731 39.2764 215.93 39.6839 216.049 40.157C216.167 40.6302 216.226 41.1559 216.226 41.7372V46.5243H213.816V42.0278C213.816 41.2538 213.713 40.7061 213.508 40.3834C213.303 40.0606 212.921 39.9 212.36 39.9C212.187 39.9 212.003 39.9088 211.81 39.9248C211.617 39.9409 211.444 39.9599 211.293 39.9818V46.5258H208.883V38.3374L208.884 38.3359Z" fill="#C7DBF2"/>
<path d="M225.75 45.4597C225.75 46.8456 225.397 47.8751 224.691 48.5469C223.984 49.2187 222.893 49.5546 221.416 49.5546C220.899 49.5546 220.382 49.5093 219.863 49.4173C219.346 49.3253 218.865 49.2056 218.424 49.0551L218.845 47.0398C219.221 47.1902 219.618 47.3085 220.033 47.3947C220.448 47.4808 220.919 47.5232 221.448 47.5232C222.138 47.5232 222.626 47.3728 222.912 47.0719C223.198 46.7711 223.34 46.3841 223.34 45.9109V45.6043C223.08 45.7225 222.814 45.8116 222.54 45.87C222.264 45.9299 221.966 45.9591 221.642 45.9591C220.467 45.9591 219.566 45.613 218.942 44.9193C218.316 44.2257 218.004 43.256 218.004 42.0103C218.004 41.3867 218.101 40.82 218.295 40.3104C218.489 39.8007 218.773 39.3626 219.144 38.996C219.516 38.6309 219.972 38.3491 220.511 38.1505C221.05 37.9518 221.659 37.8525 222.338 37.8525C222.629 37.8525 222.928 37.8657 223.236 37.8934C223.543 37.9197 223.848 37.9548 224.15 37.9986C224.452 38.0409 224.74 38.0935 225.014 38.1519C225.29 38.2118 225.535 38.2731 225.75 38.3374V45.4611V45.4597ZM220.462 42.0103C220.462 43.3538 221.006 44.0256 222.096 44.0256C222.344 44.0256 222.575 43.9935 222.792 43.9292C223.007 43.8649 223.19 43.789 223.341 43.7043V39.8679C223.223 39.846 223.082 39.827 222.921 39.8109C222.76 39.7948 222.571 39.7861 222.355 39.7861C221.719 39.7861 221.245 39.9964 220.933 40.4141C220.621 40.8332 220.464 41.3648 220.464 42.0103H220.462Z" fill="#C7DBF2"/>
<path d="M161.07 33.7795H159.681V49.7897H161.07V33.7795Z" fill="#C7DBF2"/>
<path d="M24.5753 42.1066L10.2495 37.8204L29.5245 20.0198L24.5753 42.1066Z" fill="#C7DBF2"/>
<path d="M24.5752 42.1066H40.7016L29.5243 20.0198L24.5752 42.1066Z" fill="#C7DBF2"/>
<path d="M10.2495 37.8203L14.9159 52.9061L24.5753 42.1065L10.2495 37.8203Z" fill="#C7DBF2"/>
<path d="M14.9155 52.906L24.575 59.9801V42.1064L14.9155 52.906Z" fill="#C7DBF2"/>
<path d="M24.5752 59.9801L40.7016 42.1064H24.5752V59.9801Z" fill="#C7DBF2"/>
</g>
<defs>
<clipPath id="clip0_937_3985">
<rect width="215.501" height="39.9605" fill="white" transform="translate(10.2495 20.0198)"/>
</clipPath>
</defs>
</svg>
